<svg xmlns="http://www.w3.org/2000/svg" xml:space="preserve" width="608.653" height="556.24" version="1.1" viewBox="0 0 608.653 556.24"><g fill-opacity="1" fill-rule="nonzero" stroke="none"><path d="M589.192 304.93s-11.215-3.896-17.056 22.039c-5.841 25.936-6.896 40.303-6.896 40.303s-1.864 5.598-5.97 3.296c-4.105-2.298-10.905-10.062-16.109-7.024-5.398 3.151-5.658 10.14-2.112 19.404 3.547 9.268 10.572 29.854 11.2 31.718.618 1.83.251 4.85-2.797 3.732-3.048-1.119-22.205-13.927-27.739-4.472-5.534 9.454 8.588 33.643 10.082 36.318 1.493 2.673 1.245 4.042.062 5.1-1.181 1.058-7.214-3.854-12.812-7.275-5.598-3.418-12.689-6.403-15.425-.68-2.735 5.722 1 25.623 27.748 52.672l13.215 11.722 16.922-5.332c35.522-13.618 47.128-30.21 46.995-36.55-.134-6.342-7.824-6.546-14.335-5.738-6.51.808-14.032 2.796-14.67 1.345-.642-1.45-.304-2.798 2.158-4.62 2.463-1.821 25.301-18.038 24.157-28.934-.898-8.556-15.113-8.066-22.742-7.576-2.085.134-3.68.268-4.375.217-3.237-.237-2.326-3.141-1.01-4.553 1.34-1.439 16.228-17.3 23.28-24.28 7.05-6.982 9.694-13.454 6.075-18.55-3.49-4.913-12.883-.644-17.573-.24-4.688.404-4.08-5.466-4.08-5.466s4.962-13.523 10.33-39.56c5.37-26.039-6.756-27.079-6.756-27.079l.233.063" fill="#e7e8e5"/><path d="M583.921 328.149s-.021.188-.085.55c-.073.384-.173.918-.305 1.607l-1.222 6.167c-1.068 5.356-2.666 13.092-4.68 22.643-4.018 19.107-9.792 45.455-16.26 74.532-6.47 29.087-12.304 55.421-16.418 74.507l-4.85 22.605-1.322 6.144-.359 1.596c-.084.359-.14.54-.14.54s.02-.19.085-.55c.074-.385.175-.92.304-1.607l1.223-6.167c1.067-5.354 2.665-13.09 4.679-22.643 4.018-19.106 9.792-45.457 16.262-74.544 6.47-29.078 12.302-55.409 16.416-74.493l4.85-22.606 1.324-6.147.357-1.594c.084-.36.141-.54.141-.54" fill="#dadbd8"/><path d="M552.235 374.786c.033-.018.29.356.728 1.05.44.694 1.048 1.715 1.788 2.983 1.473 2.539 3.418 6.096 5.494 10.063 2.035 3.917 3.87 7.458 5.279 10.17.641 1.216 1.183 2.243 1.617 3.07.386.722.583 1.133.55 1.153-.031.019-.292-.355-.735-1.047a79.413 79.413 0 0 1-1.773-2.992c-1.45-2.553-3.347-6.136-5.423-10.1-2.06-3.9-3.924-7.429-5.348-10.129-.648-1.215-1.195-2.239-1.633-3.063-.383-.726-.576-1.138-.544-1.158m17.106 28.39c-.076-.129 7.083-4.464 15.99-9.678 8.908-5.218 16.19-9.339 16.266-9.208.076.13-7.081 4.464-15.99 9.681-8.906 5.215-16.188 9.337-16.266 9.205m-11.95 44.214c-.006-.038.44-.171 1.249-.381l3.439-.864c2.9-.734 6.902-1.764 11.276-3.064a272.437 272.437 0 0 0 11.132-3.56c1.333-.455 2.457-.837 3.354-1.142.795-.268 1.242-.398 1.255-.363.015.038-.407.234-1.179.562a92.1 92.1 0 0 1-3.3 1.308 158.15 158.15 0 0 1-11.106 3.722 162.475 162.475 0 0 1-11.343 2.915c-1.467.312-2.656.553-3.483.696-.825.144-1.285.208-1.293.17m-21.125-22.274c.026-.025.35.256.914.787l2.348 2.288a636.598 636.598 0 0 1 7.596 7.692 632.808 632.808 0 0 1 7.484 7.805l2.222 2.41c.516.575.788.907.76.934-.027.026-.351-.253-.914-.787-.638-.62-1.422-1.385-2.346-2.287a632.788 632.788 0 0 1-7.599-7.693 634.5 634.5 0 0 1-7.481-7.804l-2.223-2.408c-.516-.578-.788-.91-.761-.937m-15.508 37.692c.026-.028.438.337 1.16 1.019.788.76 1.802 1.74 3.02 2.92 2.532 2.482 6.004 5.938 9.814 9.78a1012.11 1012.11 0 0 1 9.7 9.897c1.168 1.228 2.143 2.249 2.896 3.043.675.726 1.036 1.142 1.008 1.167-.025.028-.437-.337-1.158-1.018-.787-.76-1.803-1.741-3.02-2.92a1023.616 1023.616 0 0 1-9.816-9.783c-3.81-3.841-7.238-7.341-9.699-9.893-1.168-1.228-2.143-2.25-2.896-3.044-.675-.727-1.036-1.142-1.01-1.168m27.129 26.974c-.011-.036.549-.22 1.566-.52 1.115-.322 2.568-.745 4.322-1.254 3.644-1.062 8.673-2.548 14.178-4.344a447.299 447.299 0 0 0 14.024-4.834l4.23-1.527c1-.358 1.56-.538 1.574-.503.015.034-.518.282-1.496.701-.977.419-2.4 1.002-4.172 1.692a257.613 257.613 0 0 1-13.99 4.992 259.964 259.964 0 0 1-14.246 4.199c-1.838.477-3.33.85-4.369 1.085-1.036.237-1.613.352-1.621.313m-65.642-315.863c9.96 3.272 16.47-8.152 16.47-8.152l-6.023-3.618c-3.147 7.017-13.145 5.965-13.145 5.965l2.698 5.805m83.608-34.153c.607 10.465 13.62 12.336 13.62 12.336l1.162-6.93c-7.683-.357-10.367-10.046-10.367-10.046l-4.415 4.64M96.044 277.051c-2.948-6.576-11.766-4.596-11.766-4.596l.948 4.736c5.023-1.649 9.117 3.92 9.117 3.92l1.701-4.06M404.887 74.173c-2.948-6.576-11.768-4.594-11.768-4.594l.95 4.734c5.023-1.648 9.117 3.92 9.117 3.92l1.701-4.06M542.219 4.877C539.27-1.697 530.45.283 530.45.283l.949 4.734c5.024-1.648 9.117 3.92 9.117 3.92l1.702-4.06M323.849 39.37c-2-4.464-7.987-3.12-7.987-3.12l.643 3.215c3.412-1.119 6.19 2.661 6.19 2.661l1.155-2.756M188.492 52.315c-4.74 1.22-4.423 7.348-4.423 7.348l3.277-.092c-.528-3.551 3.668-5.654 3.668-5.654l-2.522-1.602M43.898 157.198c-.006-4.892-6.021-6.106-6.021-6.106l-.724 3.197c3.57.37 4.566 4.956 4.566 4.956l2.18-2.047m427.718-68.254c12.843 4.218 21.235-10.512 21.235-10.512l-7.764-4.667c-4.059 9.05-16.95 7.692-16.95 7.692l3.48 7.487M129.05 24.284c12.842 4.217 21.235-10.512 21.235-10.512l-7.764-4.667c-4.058 9.048-16.952 7.692-16.952 7.692l3.481 7.487m-26.216 49.89c-2.948-6.577-11.767-4.595-11.767-4.595l.949 4.734c5.023-1.648 9.117 3.92 9.117 3.92l1.701-4.06M90.161 222.206c-4.675-12.473-21.74-7.336-21.74-7.336l1.131 9.15c9.796-3.947 16.794 6.387 16.794 6.387l3.815-8.2m315.642 27.063c-5.639-12.58-22.51-8.79-22.51-8.79l1.815 9.058c9.61-3.155 17.442 7.499 17.442 7.499l3.253-7.767m-92.65-139.418c-.007-4.894-6.022-6.108-6.022-6.108l-.724 3.197c3.57.37 4.567 4.956 4.567 4.956l2.179-2.045m83.489 50.03c-.007-4.893-6.023-6.108-6.023-6.108l-.724 3.199c3.572.37 4.567 4.955 4.567 4.955l2.18-2.046m-51.168 101.235c-.007-4.894-6.023-6.108-6.023-6.108l-.724 3.198c3.572.37 4.567 4.955 4.567 4.955l2.18-2.045m219-36.97c-.007-4.894-6.023-6.109-6.023-6.109l-.723 3.199c3.57.37 4.565 4.954 4.565 4.954l2.18-2.045" fill="#dadbd8"/><path d="M559.999 268.035c-1.868-1.988-1.058-1.308-18.123 9.116 0 0 24.225-15.09 16.408-15.949-1.377-.15-5.42 1.721-9.784 4.02 6.043-4.216 7.893-7.26 6.981-8.896-1.568-2.812-16.298 5.437-23.092 9.443 5.57-3.375 16.194-9.943 18.166-12.13 2.694-2.993-2.168-3.198-6.239-2.229-4.57 1.087-30.204 11.216-37.756 13.752-5.195 1.744-6.51-2.93-6.51-2.93-1.591-11.451-8.946-19.52-11.967-20.77-3.022-1.244-5.746 2.481-3.822 5.54 1.555 2.473 2.895 7.372 3.751 11.09.707 3.063.919 6.214.565 9.315-.408 3.612-8.349 18.64-11.546 21.152l30.79 26.892s35.379-29.928 42.195-35.55c8.403-6.93 11.381-10.376 9.983-11.866" fill="#f8a58d"/><path d="M533.37 281.642c.278.477 6.19-2.804 13.203-7.332 7.016-4.53 12.44-8.565 12.119-9.015-.321-.45-6.233 2.832-13.204 7.332-6.97 4.5-12.393 8.538-12.117 9.015m-5.167-6.753c.27.481 6.765-2.662 14.505-7.02 7.742-4.36 13.795-8.283 13.523-8.764-.27-.483-6.764 2.66-14.507 7.02-7.737 4.357-13.793 8.282-13.521 8.764m-5.33-7.039c.265.485 6.462-2.387 13.84-6.413 7.378-4.028 13.143-7.686 12.88-8.17-.266-.486-6.462 2.384-13.84 6.412-7.377 4.027-13.143 7.686-12.88 8.171" fill="#f68260"/><path d="m372.8 348.395 95.381-68.638 43.188 38.405-83.945 77.444c-33.368 30.176-45.05 37.826-100.377 6.31l-35.108-20.113 12.967 160.133H146.098c-17.44-.55 22.688-44.31 19.93-44.31l-34.82-117.582-53.893 36.219 51.083 39.939-24.91 52.794-81.261-49.49c-31.664-21.059-27.411-62.07-.402-88.839 48.635-48.202 85.237-81.9 126.827-89.012 14.762-3.456 32.026-5.238 32.026-5.238s30.845-4.231 52.176-3.44c4.82.178 10.035.74 15.216 1.504 19.568 2.881 38.115 10.573 54.079 22.249l70.65 51.665" fill="#17282f"/><path d="M138.868 403.127c-.023.008-.115-.19-.27-.58l-.645-1.71a332.495 332.495 0 0 1-2.23-6.335l-7.075-20.988c-2.776-8.19-5.414-15.562-7.425-20.857l-2.405-6.266c-.256-.677-.469-1.241-.644-1.708-.14-.394-.203-.605-.182-.614.022-.011.128.184.31.56.21.452.461 1 .765 1.658.657 1.444 1.55 3.56 2.613 6.19 2.131 5.26 4.847 12.615 7.626 20.814 2.776 8.196 5.159 15.657 6.884 21.057l2.019 6.404c.208.694.379 1.272.521 1.75.112.402.16.617.138.625m106.715-102.161c.023 0 .036.228.04.663-.008.514-.014 1.142-.024 1.901-.01.423-.02.883-.033 1.376-.03.503-.108 1.043-.168 1.628-.147 1.165-.23 2.508-.567 3.95l-.454 2.28c-.166.791-.432 1.59-.658 2.431-.42 1.695-1.109 3.426-1.784 5.266-1.497 3.618-3.485 7.462-6.058 11.189-2.623 3.69-5.558 6.875-8.447 9.519-1.497 1.264-2.89 2.5-4.339 3.476-.713.498-1.373 1.024-2.06 1.449l-1.986 1.205c-1.243.81-2.476 1.347-3.52 1.883-.528.256-1.01.513-1.472.713l-1.283.502-1.779.672c-.409.146-.628.21-.636.189-.008-.023.195-.133.586-.32l1.724-.79 1.25-.553c.448-.216.92-.49 1.435-.76 1.02-.564 2.227-1.126 3.44-1.956l1.944-1.232c.672-.433 1.317-.964 2.016-1.468 1.419-.981 2.781-2.225 4.252-3.485 2.832-2.64 5.715-5.796 8.305-9.443 2.543-3.681 4.523-7.47 6.036-11.032.683-1.812 1.384-3.516 1.823-5.185.235-.83.512-1.616.69-2.396.171-.78.337-1.528.494-2.248.364-1.424.481-2.75.663-3.9.077-.579.173-1.115.224-1.61l.093-1.365.152-1.889c.043-.432.076-.66.101-.66m39.332 32.8c.191-.028 1.936 11.135 3.899 24.928 1.964 13.798 3.401 25.001 3.21 25.03-.189.026-1.934-11.134-3.898-24.933-1.963-13.792-3.4-24.998-3.21-25.025M79.291 416.455c-.05.145-2.48-.836-6.602-1.545-1.03-.171-2.16-.348-3.387-.419-1.22-.145-2.533-.13-3.912-.157a46.748 46.748 0 0 0-8.896 1.022 46.664 46.664 0 0 0-8.487 2.863c-1.237.61-2.43 1.156-3.474 1.805-1.08.588-2.026 1.23-2.886 1.823-3.428 2.396-5.21 4.319-5.315 4.208-.035-.033.403-.513 1.23-1.359.406-.43.92-.937 1.573-1.467.645-.535 1.348-1.19 2.226-1.782.853-.625 1.797-1.3 2.88-1.917 1.046-.682 2.247-1.255 3.496-1.892a44.46 44.46 0 0 1 8.606-2.959 44.521 44.521 0 0 1 9.044-.985c1.4.044 2.732.053 3.969.222 1.242.099 2.383.308 3.421.511 1.047.161 1.962.456 2.774.665.816.2 1.498.442 2.048.658 1.108.413 1.709.66 1.692.705m295.703-36.577c-.044.021-.292-.379-.708-1.127-.427-.741-.953-1.865-1.513-3.292-.572-1.421-1.108-3.173-1.558-5.15a39.716 39.716 0 0 1-.829-6.543c-.07-2.344.085-4.578.363-6.588.308-2.005.718-3.79 1.188-5.248.457-1.461.902-2.621 1.277-3.39.361-.775.581-1.194.624-1.174.117.05-.643 1.779-1.43 4.699-.402 1.457-.755 3.224-1.025 5.2a43.407 43.407 0 0 0-.302 6.475c.093 2.302.382 4.48.76 6.436.41 1.952.886 3.69 1.392 5.115.992 2.857 1.874 4.528 1.761 4.587" fill="#33535f"/><path d="M184.784 113.424c13.322-13.564 34.346-21.57 51.763-13.95 11.711 5.124 19.654 16.114 29.932 23.712 7.486 5.535 16.735 9.811 20.658 18.254 3.457 7.442 1.79 16.104.954 24.268-.834 8.165-.25 17.58 6.075 22.813 3.32 2.748 7.685 3.833 11.425 5.976 7.527 4.312 11.999 12.704 13.61 21.228 1.613 8.525.744 17.298-.131 25.93l-35.876 6.835-5.893-9.912-2.055 15.584-45.785 4.13-44.677-144.868" fill="#17282f"/><path d="m178.866 128.232-.077 9.981-2.823 149.645c-.246 17.345 16.35 32.115 34.925 32.236 18.76.123 26.411-13.972 26.948-31.488.563-18.388 1.494-37.735 1.494-37.735s23.797-3.28 29.558-34.053c2.864-15.302 2.787-40.525 2.058-61.162-.658-18.574-16.631-32.864-35.16-31.42l-56.923 3.996" fill="#f8a58d"/><path d="M260.482 172.865c.016 2.096-1.745 3.836-3.933 3.893-2.184.058-3.971-1.59-3.987-3.685-.016-2.096 1.744-3.84 3.928-3.897 2.188-.058 3.976 1.594 3.992 3.689m4.637-4.25c-.505.505-3.446-1.8-7.713-1.907-4.259-.167-7.45 1.941-7.897 1.405-.222-.237.304-1.156 1.694-2.11 1.37-.951 3.684-1.85 6.342-1.766 2.656.088 4.864 1.128 6.121 2.165 1.284 1.043 1.703 1.988 1.453 2.214m-47.104 3.762c.016 2.095-1.745 3.836-3.932 3.894-2.184.057-3.97-1.591-3.988-3.687-.016-2.095 1.746-3.839 3.93-3.896 2.186-.057 3.974 1.593 3.99 3.69m5.155-4.123c-.505.502-3.45-1.802-7.713-1.908-4.259-.167-7.45 1.941-7.899 1.405-.22-.237.301-1.156 1.696-2.11 1.37-.953 3.684-1.85 6.34-1.766 2.657.088 4.865 1.128 6.123 2.164 1.28 1.043 1.701 1.99 1.453 2.215m14.608 32.058c-.013-.242 2.652-.626 6.963-1.058 1.092-.082 2.129-.27 2.333-1.008.279-.78-.145-1.967-.639-3.248-.95-2.666-1.946-5.456-2.992-8.383-4.148-11.932-7.117-21.73-6.636-21.893.483-.164 4.236 9.376 8.383 21.308.996 2.94 1.95 5.745 2.855 8.428.378 1.249 1.049 2.672.448 4.29-.316.806-1.132 1.375-1.835 1.543-.705.193-1.317.19-1.857.207-4.33.112-7.014.058-7.023-.186" fill="#17282f"/><path d="M239.333 250.871s-20.83.767-41.088-12.184c0 0 9.456 21.508 40.47 19.47l.618-7.286m-3.642-40.326c-1.478-2.07-4.134-3.259-6.812-3.044-1.856.148-3.75.988-4.917 2.465-1.165 1.476-1.46 3.61-.477 5.075 1.105 1.65 3.5 2.09 5.552 1.568s3.841-1.815 5.541-3.104c.47-.356.952-.728 1.253-1.227.302-.498.382-1.16.038-1.588" fill="#f68260"/><path d="M225.143 202.92c.696-.022.578 4.609 4.45 8.004 3.864 3.406 8.814 3.02 8.832 3.67.057.292-1.123.87-3.208.868-2.046.014-5.01-.725-7.38-2.801-2.363-2.083-3.328-4.8-3.434-6.704-.124-1.94.426-3.073.74-3.037m-.617-47.071c-.453 1.148-4.696.48-9.717.945-5.03.366-9.107 1.719-9.742.66-.282-.506.451-1.577 2.114-2.654 1.648-1.078 4.258-2.072 7.272-2.324 3.012-.246 5.75.308 7.552 1.1 1.817.79 2.717 1.728 2.521 2.273m40.752 4.15c-.94.943-4.49-.16-8.788-.326-4.293-.29-7.96.432-8.77-.605-.354-.502.246-1.456 1.862-2.33 1.593-.87 4.236-1.545 7.19-1.39 2.953.158 5.49 1.108 6.958 2.141 1.492 1.037 1.964 2.048 1.548 2.51" fill="#17282f"/><path d="M200.94 109.974c5.6 7.516 8.26 13.291 11.617 26.656 1.642 6.547-3.679 11.17-8.967 15.166-2.477 1.873-6.06.565-6.737-2.466 0 0 1.836 20.482-5.57 29.664-3.471 4.306-3.618 9.828-2.794 14.48.841 4.752 3.29 9.028 6.615 12.527 8.586 9.027 10.971 23.75 5.047 34.822-1.515 2.836-3.495 5.431-4.706 8.41-.693 1.704-1.097 3.612-.987 5.436.136 2.254-1.416 4.25-3.65 4.573a338.187 338.187 0 0 1-76.832 2.31c-1.801-.151-3.346-1.426-3.761-3.186-2.005-8.485 1.337-17.74 5.627-25.556 4.79-8.727 10.89-17.101 12.538-26.92 1.551-9.238-.971-19.201 2.742-27.804 4.555-10.557 16.939-15.549 23.139-25.233 5.85-9.137 5.38-21.12 10.62-30.62 6.728-12.196 23.292-17.828 36.06-12.259" fill="#17282f"/><path d="M202.367 121.318c9.722 5 14.214 16.888 23.658 22.392 8.601 5.014 19.334 3.69 29.178 2.211l-1.096-6.55c.996 1.914 2.03 3.875 3.648 5.302 1.62 1.428 3.982 2.224 5.984 1.417 3.303-1.33 3.74-5.874 2.894-9.333-1.359-5.539-4.594-10.492-8.595-14.556-7.272-7.385-17.253-12.041-27.584-12.867-10.332-.825-20.925 2.187-29.279 8.322m-36.52 28.948c3.18-7.17 1.135-16.186-4.517-21.62-5.653-5.435-14.433-7.17-21.888-4.74-3.336 1.085-6.487 3.001-8.545 5.842-3.79 5.235-3.051 12.935.868 18.074 3.92 5.138 10.447 7.854 16.9 8.212 6.453.357 12.857-1.414 18.825-3.896" fill="#17282f"/><path d="M154.068 146.824c.1-.127 1.856 1.385 5.092 3.161 1.609.903 3.624 1.788 5.922 2.585a41.323 41.323 0 0 0 7.712 1.72 41.32 41.32 0 0 0 7.903.078c2.419-.255 4.583-.659 6.355-1.172 3.556-.995 5.608-2.067 5.677-1.92.024.049-.475.336-1.405.814-.462.248-1.038.53-1.735.79-.693.266-1.47.617-2.376.862-1.78.592-3.975 1.064-6.441 1.364a38.88 38.88 0 0 1-8.071-.016 38.828 38.828 0 0 1-7.86-1.818c-2.333-.852-4.363-1.811-5.963-2.792-.826-.444-1.502-.962-2.117-1.38a13.797 13.797 0 0 1-1.51-1.162c-.798-.678-1.22-1.072-1.183-1.114m39.936 17.782c.012.052-.586.242-1.684.522-1.098.278-2.7.64-4.698.989-3.972.677-9.68 1.352-15.834.093-6.164-1.276-11.091-4.636-13.682-7.8-1.317-1.573-2.148-3.025-2.592-4.076-.452-1.049-.605-1.662-.565-1.676.164-.085.896 2.4 3.585 5.378 2.626 2.976 7.435 6.145 13.418 7.386 5.993 1.227 11.614.663 15.584.132 1.994-.274 3.605-.549 4.72-.733s1.736-.27 1.748-.215m-55.046 94.607c-.01.01-.078-.063-.204-.212-.117-.155-.317-.37-.525-.69a8.889 8.889 0 0 1-1.232-3.096c-.608-2.818.025-7.416 3.399-11.484 1.676-2 3.924-3.798 6.465-5.454 2.533-1.674 5.385-3.21 8.177-5.094 2.764-1.889 5.555-4.184 7.448-7.272.939-1.536 1.607-3.27 1.85-5.107.26-1.836.117-3.747-.296-5.623-.844-3.77-2.536-7.227-3.915-10.661-1.42-3.41-2.528-6.94-2.613-10.407-.283-6.952 2.31-12.961 5.3-17.135 3.028-4.246 6.568-6.721 9.12-8.036.64-.306 1.217-.582 1.732-.83.504-.176.944-.331 1.326-.466.719-.241 1.099-.356 1.107-.329.01.027-.355.192-1.05.483l-1.287.532c-.5.262-1.058.558-1.68.885-2.472 1.384-5.895 3.887-8.802 8.09-2.874 4.133-5.342 10.03-5.025 16.773.104 3.36 1.181 6.749 2.603 10.142 1.376 3.407 3.092 6.883 3.97 10.787.428 1.944.583 3.957.306 5.905-.263 1.95-.982 3.8-1.971 5.408-2.004 3.239-4.888 5.57-7.708 7.477-2.852 1.896-5.705 3.406-8.23 5.038-2.527 1.613-4.74 3.344-6.395 5.265-3.308 3.872-4.022 8.316-3.522 11.057.499 2.82 1.776 4 1.652 4.054" fill="#33535f"/><path d="M180.132 259.775c-.015.024-.32-.148-.895-.504-.532-.405-1.336-1.048-1.995-2.17-.68-1.099-1.221-2.628-1.39-4.456-.171-1.824.037-3.932.673-6.146 1.256-4.538 5.05-8.666 7.895-13.85 1.416-2.594 2.426-5.599 2.325-8.808-.055-3.199-1.025-6.455-2.484-9.541-2.936-6.216-7.45-11.158-10.568-16.33-1.577-2.573-2.87-5.177-3.647-7.77-.825-2.59-.976-5.168-.76-7.454.435-4.621 2.568-7.997 4.502-9.666.99-.826 1.86-1.327 2.48-1.591.625-.252.956-.37.965-.344.056.104-1.37.477-3.233 2.167-1.814 1.692-3.795 4.994-4.146 9.486-.173 2.226.003 4.704.83 7.203.784 2.516 2.066 5.05 3.64 7.579 1.578 2.528 3.453 5.05 5.357 7.708 1.91 2.649 3.819 5.497 5.31 8.668 1.489 3.157 2.495 6.524 2.542 9.873.099 3.361-.992 6.533-2.46 9.172-2.959 5.277-6.743 9.324-8.003 13.665-.652 2.135-.893 4.177-.77 5.944.122 1.77.6 3.25 1.213 4.33 1.247 2.202 2.725 2.726 2.619 2.835m61.005-116.045c-.014.024-.214-.061-.584-.246a11.902 11.902 0 0 1-1.53-.975c-1.27-.936-2.929-2.572-4.446-4.959-1.554-2.368-2.876-5.47-4.28-8.877-.712-1.701-1.472-3.475-2.406-5.23-.974-1.726-2.049-3.489-3.413-5.097-5.35-6.597-12.552-10.138-17.865-11.517-5.387-1.405-8.903-1.085-8.89-1.273-.003-.05.86-.114 2.432-.136 1.564.065 3.855.185 6.598.858 2.73.671 5.937 1.8 9.153 3.708 3.2 1.903 6.499 4.47 9.197 7.851 1.396 1.65 2.496 3.461 3.484 5.237.946 1.8 1.7 3.603 2.395 5.316 1.372 3.434 2.617 6.503 4.076 8.859 1.425 2.375 2.976 4.023 4.159 5.015 1.186.994 1.957 1.402 1.92 1.466" fill="#33535f"/><path d="M262.697 143.604c-.006.026-.29-.004-.832-.088-.544-.071-1.335-.264-2.322-.602-1.972-.672-4.704-2.152-7.369-4.789-2.696-2.596-5.295-6.265-7.648-10.567-2.42-4.248-4.77-9.134-8.405-13.386-3.598-4.304-8.484-6.867-13.118-8.183-4.668-1.328-9.086-1.596-12.762-1.704-3.687-.081-6.679.073-8.744.153-.96.038-1.745.067-2.381.091-.546.015-.834.008-.835-.02-.003-.027.28-.075.823-.141a62.438 62.438 0 0 1 2.371-.242c2.064-.177 5.058-.418 8.772-.409 3.704.035 8.178.243 12.958 1.557 4.738 1.298 9.822 3.94 13.525 8.371 3.73 4.37 6.067 9.305 8.444 13.553 2.305 4.298 4.807 7.923 7.401 10.523 2.562 2.635 5.176 4.15 7.079 4.899 1.91.753 3.06.894 3.043.984m36.502 100.331c-.09-.034.395-1.097.91-3.12.512-2.014 1.093-5.01.928-8.732-.132-3.698-1.014-8.142-3.286-12.491-1.121-2.176-2.622-4.275-4.418-6.256-1.791-1.987-3.84-3.876-5.911-5.856-2.07-1.978-4.073-3.974-5.728-6.148a38.179 38.179 0 0 1-4.123-6.674 36.953 36.953 0 0 1-2.492-6.641 36.912 36.912 0 0 1-1.162-6.065c-.415-3.758-.202-6.83.088-8.911.121-1.047.306-1.845.425-2.385.121-.54.197-.822.224-.815.083.016-.155 1.155-.337 3.236a39.592 39.592 0 0 0 .165 8.808 37.604 37.604 0 0 0 1.24 5.95 37.112 37.112 0 0 0 2.516 6.498 38.192 38.192 0 0 0 4.079 6.515c1.625 2.118 3.597 4.078 5.662 6.05 2.064 1.972 4.126 3.88 5.939 5.91 1.821 2.024 3.36 4.2 4.493 6.442a29.4 29.4 0 0 1 3.195 12.816 27.845 27.845 0 0 1-1.196 8.833c-.312 1.01-.601 1.774-.837 2.276-.22.51-.348.771-.374.76M129.855 142.38c-.045-.007-.015-.552.197-1.516.207-.963.666-2.332 1.518-3.888 1.64-3.079 5.33-6.95 10.716-8.264 5.402-1.266 10.443.516 13.299 2.52 1.464 1.001 2.493 2.016 3.113 2.78.624.764.898 1.237.862 1.262-.127.12-1.358-1.738-4.284-3.565-2.843-1.82-7.687-3.415-12.802-2.216-5.104 1.245-8.7 4.859-10.412 7.77-1.783 2.953-2.041 5.165-2.207 5.117" fill="#33535f"/><path d="M144.834 148.889c-.098-.02.004-1.363.432-3.51.452-2.097 1.235-5.222 3.652-7.75 2.523-2.53 6.088-2.844 8.195-2.073 1.073.392 1.817.994 2.19 1.5.389.494.507.824.471.844-.125.128-.798-1.218-2.833-1.803-1.944-.57-5.201-.173-7.445 2.096-2.234 2.319-3.094 5.277-3.678 7.32-.561 2.083-.864 3.4-.984 3.376" fill="#33535f"/><path d="M164.469 126.245c.208.145-2.372 3.536-4.061 8.42-1.738 4.87-1.844 9.128-2.098 9.11-.19.033-.45-4.355 1.338-9.377 1.745-5.034 4.692-8.297 4.82-8.153m-10.931 383.779 31.247-23.41-8.822-115.803 105.203-5.555 10.774 121.358 9.675 18.397 8.165 50.881H129.554l23.983-45.868" fill="#f03d5f"/><path d="m257.323 272.878 14.054 98.54 10.137-2.227-12.096-92.822s-6.464-5.663-12.095-3.491m-81.36 97.933-39.171-86.38s4.324-5.926 8.597-5.926c4.272 0 3.263 3.15 3.263 3.15l36.132 89.763-8.822-.607" fill="#f03d5f"/><path d="M269.165 411.663c.01 0 .026.11.044.321l.061.948c.052.834.092 2.064.119 3.648.022 3.167-.012 7.776-.83 13.406-.842 5.59-2.528 12.323-6.521 18.771-1.983 3.218-4.65 6.227-7.847 8.814-1.605 1.283-3.344 2.47-5.234 3.445-1.866 1.026-3.9 1.798-6.004 2.384-2.106.616-4.28.828-6.408.89-2.136-.016-4.24-.287-6.235-.83-4.001-1.085-7.495-3.188-10.37-5.627-5.813-4.916-9.145-11.104-11.229-16.346-2.096-5.291-3.14-9.782-3.869-12.861-.35-1.546-.603-2.748-.764-3.568l-.173-.934c-.035-.21-.047-.32-.036-.322.012-.003.048.1.105.308l.241.917.89 3.535c.81 3.054 1.924 7.514 4.061 12.74 2.125 5.182 5.461 11.249 11.187 16.042 2.83 2.377 6.248 4.415 10.137 5.46 1.939.524 3.979.782 6.05.795 2.069-.064 4.182-.267 6.233-.87 2.05-.57 4.036-1.324 5.861-2.325 1.85-.95 3.556-2.11 5.132-3.364 3.14-2.53 5.77-5.474 7.73-8.624 3.957-6.318 5.68-12.965 6.578-18.505.873-5.579.984-10.172 1.044-13.33l.012-3.645c.004-.382.007-.694.008-.949.005-.213.015-.323.027-.324m-5.723-4.853c.012.021-.161.145-.501.366-.346.215-.843.554-1.522.924-1.333.779-3.33 1.799-5.892 2.844-5.104 2.079-12.664 4.071-21.149 3.854-4.227-.086-8.213-.542-11.839-.79-3.622-.276-6.893-.336-9.62-.102-2.726.228-4.9.705-6.364 1.153-1.46.456-2.254.772-2.28.713-.009-.022.18-.121.55-.29.374-.155.91-.44 1.648-.679 1.452-.533 3.642-1.092 6.401-1.385 2.757-.302 6.068-.291 9.708-.047 3.643.213 7.627.648 11.81.733 8.378.215 15.85-1.673 20.957-3.617a60.177 60.177 0 0 0 5.944-2.625c1.372-.694 2.12-1.102 2.149-1.052" fill="#17282f"/><path d="M238.66 472.866c-.827 0-1.658-.045-2.486-.134-9.575-1.034-17.717-7.95-22.684-16.2-4.968-8.252-7.276-17.785-9.517-27.152l1.378 1.372c.707 2.879 1.706 6.558 3.36 10.735 2.084 5.242 5.416 11.43 11.23 16.346 2.874 2.439 6.368 4.542 10.37 5.627 1.994.543 4.098.814 6.234.83 2.128-.062 4.302-.274 6.408-.89 2.104-.586 4.138-1.358 6.004-2.384 1.89-.976 3.629-2.162 5.234-3.445 3.198-2.587 5.864-5.596 7.847-8.814 3.993-6.448 5.679-13.18 6.521-18.771.467-3.218.679-6.1.77-8.572.5 7.578 1.57 14.781-.128 22.224-1.787 7.829-5.376 15.398-11.154 20.977-5.177 5.001-12.23 8.25-19.386 8.25m-6.65-9.709a21.92 21.92 0 0 1-1.52-.352c-3.89-1.045-7.308-3.083-10.138-5.46-5.726-4.793-9.062-10.86-11.187-16.042-.3-.734-.58-1.454-.841-2.155 1.658 4.225 3.676 8.29 6.34 11.955 4.236 5.826 10.31 10.597 17.345 12.054m22.843-7.027c.47-.431.925-.878 1.364-1.34 5.693-5.978 8.748-13.226 11.132-21.086-1.036 4.65-2.764 9.781-5.852 14.713-1.73 2.779-3.982 5.399-6.644 7.713" fill="#9c2438"/><path d="M236.545 464.29c-2.136-.016-4.24-.287-6.235-.83-4.001-1.085-7.495-3.188-10.37-5.627-5.813-4.916-9.145-11.104-11.229-16.346-1.654-4.177-2.653-7.856-3.36-10.735l.156.155c.843 2.77 1.756 5.538 2.818 8.24.261.701.541 1.421.841 2.155 2.125 5.182 5.461 11.249 11.187 16.042 2.83 2.377 6.248 4.415 10.137 5.46a22.19 22.19 0 0 0 1.52.352 22.24 22.24 0 0 0 4.536.463c6.687 0 13.327-2.907 18.307-7.49 2.662-2.314 4.914-4.934 6.644-7.713 3.088-4.932 4.816-10.064 5.852-14.713.126-.416.25-.835.374-1.255.952-3.255 1.532-12.224 1.532-12.224.023.398.048.794.074 1.19a79.886 79.886 0 0 1-.77 8.572c-.842 5.59-2.528 12.323-6.521 18.771-1.983 3.218-4.65 6.227-7.847 8.814-1.605 1.283-3.344 2.47-5.234 3.445-1.866 1.026-3.9 1.798-6.004 2.384-2.106.616-4.28.828-6.408.89" fill="#0c1418"/><path d="M227.92 400.116a27.102 27.102 0 0 1-7.438-2.614c-1.279-.672-2.537-1.479-3.375-2.656-.837-1.178-1.178-2.798-.53-4.09.594-1.188 1.942-1.854 3.278-1.854.295 0 .588.033.874.098 1.578.367 2.856 1.608 3.573 3.06-.705-1.978.744-4.59 2.795-4.59.072 0 .144.002.217.01 1.596.142 2.761 1.731 2.94 3.323.179 1.592-.399 3.167-1.04 4.635s-1.368 2.942-1.512 4.538l.219.14m25.74 102.286a27.03 27.03 0 0 1-7.439-2.614c-1.279-.673-2.537-1.479-3.375-2.656-.838-1.177-1.18-2.799-.532-4.09.596-1.187 1.944-1.855 3.28-1.855.295 0 .588.033.874.098 1.578.369 2.854 1.608 3.573 3.06-.707-1.977.743-4.59 2.795-4.59.072 0 .144.004.217.01 1.596.142 2.76 1.73 2.94 3.325.179 1.591-.399 3.165-1.04 4.633-.641 1.47-1.368 2.943-1.512 4.54l.219.139m21.121 45.857a27.043 27.043 0 0 1-7.439-2.614c-1.278-.673-2.536-1.48-3.374-2.656-.838-1.177-1.179-2.798-.531-4.09.595-1.188 1.944-1.855 3.281-1.855.294 0 .587.032.871.099 1.579.366 2.856 1.607 3.573 3.061-.706-1.978.744-4.592 2.795-4.592.072 0 .144.003.217.01 1.596.144 2.762 1.732 2.94 3.323.179 1.593-.398 3.167-1.04 4.635-.641 1.47-1.368 2.943-1.512 4.539l.219.14M241.983 442.4a27.058 27.058 0 0 1-7.438-2.614c-1.279-.672-2.538-1.477-3.375-2.655-.837-1.177-1.179-2.799-.53-4.09.594-1.187 1.943-1.855 3.28-1.855.293 0 .586.033.871.098 1.58.368 2.855 1.608 3.575 3.06-.707-1.977.741-4.59 2.793-4.59.072 0 .144.004.218.01 1.596.141 2.761 1.732 2.94 3.324.18 1.592-.399 3.166-1.04 4.633-.642 1.47-1.368 2.945-1.512 4.54l.218.14m30.967 32.723a27.05 27.05 0 0 1-6.265-4.788c-1.008-1.034-1.955-2.189-2.388-3.568-.432-1.378-.255-3.027.76-4.053.634-.644 1.526-.95 2.432-.95.718 0 1.446.194 2.06.564 1.388.837 2.218 2.411 2.452 4.015-.052-1.833 1.609-3.62 3.33-3.62.319 0 .639.062.951.195 1.473.63 2.09 2.501 1.768 4.07-.323 1.57-1.359 2.889-2.423 4.086-1.064 1.199-2.212 2.375-2.841 3.85l.164.2m-82.286 72.858a27.076 27.076 0 0 1-6.266-4.788c-1.008-1.035-1.954-2.191-2.388-3.57-.432-1.378-.256-3.025.76-4.053.635-.642 1.527-.95 2.432-.95a4.02 4.02 0 0 1 2.06.565c1.388.837 2.219 2.412 2.452 4.016-.052-1.835 1.61-3.62 3.33-3.62.32 0 .64.061.952.193 1.473.63 2.089 2.502 1.766 4.07-.321 1.571-1.357 2.889-2.421 4.087-1.064 1.198-2.21 2.375-2.841 3.847l.164.203m67.543-153.512a14.939 14.939 0 0 1-3.968-1.773c-.672-.428-1.326-.928-1.733-1.614-.407-.685-.521-1.59-.107-2.27.35-.574 1.027-.878 1.703-.878.224 0 .448.034.659.102.85.273 1.496 1.013 1.825 1.844-.29-1.083.557-2.4 1.633-2.4.075 0 .151.005.228.018.871.151 1.439 1.076 1.466 1.96.026.883-.363 1.722-.782 2.5-.42.776-.885 1.554-1.037 2.424l.113.087m20.372 40.66a10.87 10.87 0 0 1-2.896-1.295c-.489-.312-.968-.676-1.265-1.176-.296-.5-.38-1.16-.077-1.657.254-.419.749-.641 1.242-.641.163 0 .327.025.482.074.62.2 1.09.74 1.33 1.344-.21-.79.408-1.75 1.195-1.75.053 0 .11.005.165.014.636.11 1.05.787 1.07 1.431.018.644-.266 1.256-.572 1.823-.306.568-.646 1.136-.756 1.77l.082.063m-2.836-57.519a10.91 10.91 0 0 1-2.897-1.293c-.49-.313-.968-.677-1.264-1.177-.297-.5-.381-1.162-.077-1.658.254-.418.748-.64 1.241-.64.164 0 .327.024.481.074.62.198 1.092.738 1.332 1.345-.21-.79.407-1.752 1.192-1.752.055 0 .111.005.167.015.636.11 1.05.785 1.07 1.43.018.644-.265 1.256-.571 1.823-.307.568-.646 1.136-.756 1.77l.082.063m-88.17 129.497a10.888 10.888 0 0 1-2.896-1.294c-.49-.313-.968-.678-1.265-1.178-.298-.5-.38-1.16-.078-1.657.255-.419.75-.64 1.242-.64.164 0 .326.024.48.074.622.198 1.093.738 1.333 1.345-.21-.79.407-1.752 1.192-1.752.056 0 .11.005.168.014.635.11 1.05.787 1.068 1.43.019.645-.264 1.257-.57 1.824-.306.568-.646 1.136-.757 1.77l.083.064m96.669 1.484a10.844 10.844 0 0 1-2.896-1.294c-.49-.312-.968-.678-1.265-1.178-.298-.498-.38-1.161-.079-1.657.256-.419.75-.64 1.243-.64.164 0 .326.024.481.073.621.2 1.092.74 1.332 1.346-.21-.79.408-1.75 1.193-1.75.055 0 .111.003.167.012.635.111 1.05.787 1.068 1.432.019.644-.264 1.256-.57 1.823-.306.568-.646 1.135-.757 1.77l.083.063m-96.261-123.44a10.918 10.918 0 0 1-2.897-1.295c-.49-.31-.968-.678-1.264-1.176-.298-.5-.38-1.162-.078-1.658.255-.418.75-.64 1.243-.64.163 0 .327.023.48.072.621.202 1.092.74 1.332 1.347-.21-.79.407-1.752 1.193-1.752a.96.96 0 0 1 .167.015c.635.11 1.05.785 1.068 1.43.02.644-.264 1.256-.57 1.824-.306.568-.646 1.134-.757 1.77l.083.064m32.841 97.189a14.962 14.962 0 0 1-3.97-1.774c-.671-.427-1.325-.927-1.733-1.613-.406-.684-.52-1.59-.105-2.27.35-.574 1.025-.878 1.701-.878.224 0 .448.034.66.102.85.273 1.495 1.013 1.824 1.844-.288-1.085.56-2.402 1.635-2.402.075 0 .15.007.228.02.87.151 1.437 1.076 1.465 1.96.026.884-.364 1.722-.782 2.499-.419.779-.884 1.556-1.036 2.425l.113.087m14.664 55.018a14.927 14.927 0 0 1-3.968-1.773c-.672-.428-1.327-.928-1.733-1.613-.407-.685-.522-1.591-.107-2.27.35-.574 1.027-.879 1.703-.879.224 0 .448.034.658.102.851.274 1.496 1.013 1.826 1.844-.29-1.084.557-2.401 1.633-2.401.076 0 .152.007.23.02.869.15 1.438 1.077 1.463 1.96.027.882-.362 1.72-.78 2.498-.42.777-.886 1.555-1.038 2.424l.113.088m-41.272-98.26a14.897 14.897 0 0 1-3.968-1.774c-.673-.428-1.328-.928-1.734-1.612-.407-.686-.52-1.592-.106-2.27.35-.574 1.026-.88 1.702-.88.224 0 .448.034.66.102.85.273 1.496 1.012 1.824 1.843-.29-1.082.558-2.4 1.634-2.4.076 0 .152.006.228.02.87.15 1.439 1.077 1.464 1.96.027.882-.361 1.722-.781 2.5-.419.777-.885 1.554-1.036 2.424l.113.088" fill="#f57797"/><path d="M291.94 486.614c.013.02-.306.238-.926.634-.632.375-1.515 1.02-2.76 1.66-2.435 1.377-6.13 3.085-10.893 4.634-9.507 3.148-23.436 5.06-38.683 4.013-7.61-.571-14.832-1.326-21.373-2.294-6.54-.962-12.378-2.19-17.21-3.474-4.83-1.291-8.671-2.572-11.287-3.552-1.316-.466-2.315-.896-3-1.164-.68-.279-1.032-.435-1.024-.457.009-.022.378.091 1.074.326.7.227 1.71.615 3.039 1.04 2.64.9 6.493 2.105 11.321 3.332 4.83 1.22 10.653 2.392 17.179 3.316 6.521.931 13.745 1.664 21.326 2.233 15.17 1.042 29.01-.78 38.491-3.79 4.75-1.476 8.452-3.103 10.913-4.403 1.259-.6 2.16-1.204 2.814-1.54.642-.356.986-.533.998-.514" fill="#17282f"/><path d="M126.74 459.203c.515.773 5.59 4.707 5.59 4.707l9.288-3.35 11.595 5.927s10.4 1.093 10.49 4.846c.089 3.754 6.19 22.206-1.73 34.83-7.921 12.624-13.513 16.81-13.513 16.81l-27.085-28.714-8.003-6.208 13.369-28.848" fill="#f8a58d"/><path d="M603.028 555.892c0 .193-128.048.348-285.966.348-157.973 0-285.993-.155-285.993-.348 0-.19 128.02-.345 285.993-.345 157.918 0 285.966.154 285.966.345" fill="#17282f"/><path d="M348.715 179.332a3.307 3.307 0 1 1-6.614-.002 3.307 3.307 0 0 1 6.614.002M53.523 306.689a3.307 3.307 0 1 1-6.615 0 3.307 3.307 0 0 1 6.615 0m538.88-132.59a3.306 3.306 0 1 1-6.612.002 3.306 3.306 0 0 1 6.612-.001M77.534 143.51a3.307 3.307 0 1 1-6.614 0 3.307 3.307 0 0 1 6.614 0M259.83 66.644a3.308 3.308 0 0 1-6.614 0 3.306 3.306 0 1 1 6.614 0m182.987 39.25a3.307 3.307 0 1 1-6.614 0 3.307 3.307 0 0 1 6.614 0M387.362 243.24a1.25 1.25 0 1 1-1.77 1.768 1.25 1.25 0 0 1 1.77-1.768m117.129-85.222a1.25 1.25 0 1 1-1.768 1.77 1.25 1.25 0 0 1 1.768-1.77m-167.817-55.43a1.25 1.25 0 1 1-1.768 1.77 1.25 1.25 0 0 1 1.768-1.77m166.933-67.075a1.252 1.252 0 1 1-1.773 1.77 1.252 1.252 0 0 1 1.773-1.77m87.258 203.934c.488.49.488 1.281 0 1.77a1.248 1.248 0 0 1-1.768 0 1.25 1.25 0 1 1 1.768-1.77m-434.42-189.6a1.25 1.25 0 0 1 0 1.767 1.25 1.25 0 0 1-1.77 0 1.25 1.25 0 0 1 0-1.768 1.252 1.252 0 0 1 1.77 0M48.679 240.331a1.252 1.252 0 1 1-1.769 1.768 1.252 1.252 0 0 1 1.77-1.768M34.423 86.2a1.251 1.251 0 1 1-1.77 1.769 1.251 1.251 0 0 1 1.77-1.77M332.73 27.437a1.25 1.25 0 1 1-1.25-2.166 1.25 1.25 0 0 1 1.25 2.166m250.684 35.901a3.307 3.307 0 1 1-6.613 0 3.307 3.307 0 0 1 6.613 0M396.642 4.47a3.308 3.308 0 1 1-6.615.001 3.308 3.308 0 0 1 6.615 0m48.418 212.347a3.307 3.307 0 1 1-6.614 0 3.307 3.307 0 0 1 6.614 0m-24.817 87.73a4.997 4.997 0 0 0 9.992 0 4.994 4.994 0 0 0-4.996-4.994 4.995 4.995 0 0 0-4.996 4.994" fill="#f03d5f"/><path d="M412.504 293.202c-.006-.08.902-.255 2.372-.067 1.458.179 3.482.811 5.3 2.192 1.822 1.383 2.972 3.163 3.535 4.519.575 1.367.65 2.288.572 2.303-.108.028-.352-.836-1.015-2.092-.653-1.25-1.801-2.878-3.512-4.176-1.709-1.3-3.586-1.968-4.965-2.263-1.387-.301-2.285-.305-2.287-.416" fill="#17282f"/><path d="M422.902 302.113c.085-.175.628-.112 1.172-.428.56-.284.804-.774.996-.75.089.015.154.203.073.495-.079.288-.335.647-.739.865-.402.219-.844.239-1.126.148-.29-.09-.411-.249-.376-.33" fill="#17282f"/><path d="M428.744 306.689c-.186-.063.648-1.739-.044-3.688-.692-1.952-2.394-2.727-2.29-2.894.032-.081.5-.02 1.14.38.632.39 1.409 1.172 1.804 2.282.393 1.11.282 2.206.036 2.906-.246.715-.571 1.058-.646 1.014" fill="#fff"/><path d="M468.948 302.885a7.04 7.04 0 1 1-14.08 0 7.04 7.04 0 0 1 14.08 0" fill="#f03d5f"/><path d="M479.853 286.897c0 .117-1.269.086-3.24.489-1.96.39-4.633 1.325-7.065 3.17-2.433 1.85-4.05 4.174-4.952 5.958-.917 1.79-1.226 3.021-1.34 2.99-.073-.011.068-1.3.896-3.2.812-1.89 2.434-4.367 4.976-6.3 2.54-1.93 5.364-2.827 7.401-3.103 2.054-.288 3.332-.076 3.324-.004" fill="#33535f"/><path d="M465.203 299.453c.033.08-.147.268-.536.366-.387.1-.975.062-1.515-.233-.541-.293-.894-.764-1.02-1.143-.13-.382-.072-.634.015-.649.19-.032.484.745 1.336 1.183.83.474 1.643.3 1.72.476" fill="#17282f"/><path d="M456.968 305.902c-.07.044-.494-.456-.81-1.452-.32-.979-.455-2.495.085-4.025.544-1.531 1.605-2.622 2.47-3.182.873-.574 1.517-.693 1.545-.616.042.099-.515.376-1.25 1.007-.732.62-1.624 1.655-2.11 3.024-.484 1.368-.443 2.732-.264 3.676.173.95.43 1.519.334 1.568" fill="#fff"/><path d="M477.939 371.995h-70.592v-58.81a4.005 4.005 0 0 1 4.005-4.006h66.587v62.816" fill="#f03d5f"/><path d="M407.347 327.18a7.532 7.532 0 0 1-.545-1.194c.176.12.358.233.545.336v.859m70.592-2.3v-2.971l.034.025.023 2.926-.057.02" fill="#0f191d"/><path d="M428.868 332.65c-.178 0-.36-.015-.545-.047-3.276-.568-4.104-5.87-7.412-6.205a3.201 3.201 0 0 0-.317-.016c-2.356 0-3.971 2.672-6.216 3.615a4.63 4.63 0 0 1-1.795.352c-1.933 0-3.896-1.118-4.988-2.767a7.39 7.39 0 0 1-.248-.401v-.86c.892.493 1.888.776 2.876.776.632 0 1.26-.115 1.856-.366 2.323-.974 3.993-3.736 6.43-3.736.107 0 .217.006.327.016 3.422.347 4.278 5.828 7.667 6.416.19.034.38.05.564.05 2.62 0 4.53-3.202 5.468-5.538.473-1.18 1.13-2.302 2.095-3.13 1.04-.892 1.998-1.227 2.906-1.227 1.358 0 2.6.748 3.83 1.496 1.232.75 2.449 1.497 3.754 1.497.239 0 .479-.025.723-.078 2.593-.575 3.4-3.952 5.579-5.471.828-.577 1.802-.83 2.8-.83 1.438 0 2.928.526 4.108 1.377 1.998 1.44 3.312 3.62 4.578 5.734.898 1.496 1.843 3.036 3.282 4.024.795.546 1.787.874 2.745.874.774 0 1.528-.215 2.136-.706 1.23-.988 1.517-2.733 1.53-4.312v-.204c0-.414-.009-.833-.009-1.25 0-1.111.063-2.214.517-3.212.488-1.072 1.655-1.92 2.763-1.92.377 0 .747.097 1.08.317-.125.71-.25 1.441-.25 2.159a4.44 4.44 0 0 0 .249 1.533c.188.51.546.975.988 1.3v2.97a2.542 2.542 0 0 1-.776.137c-.419 0-.88-.142-1.083-.692-.416-1.131-.25-2.762-.039-3.947-.302-.2-.576-.288-.824-.288-.798 0-1.346.91-1.829 1.967-.632 1.389-.48 2.986-.492 4.512-.01 1.526-.288 3.214-1.477 4.17-.59.474-1.318.682-2.067.682-.925 0-1.884-.318-2.653-.846-1.392-.954-2.307-2.444-3.173-3.89-1.226-2.043-2.496-4.151-4.428-5.544-1.142-.823-2.582-1.332-3.971-1.332-.965 0-1.907.245-2.708.804-2.107 1.466-2.888 4.732-5.395 5.288a3.16 3.16 0 0 1-.698.077c-1.263 0-2.44-.724-3.63-1.448s-2.392-1.448-3.704-1.448c-.077 0-.153.003-.23.008-2.506.164-3.927 2.85-5.004 5.119-1 2.097-2.684 4.44-4.89 4.44" fill="#ba2c42"/><path d="M478.17 308.925c-1.227-.594-2.642-.622-4.005-.639-11.22-.139-22.286.143-33.351.424-9.738.247-19.475.495-29.316.456a6.782 6.782 0 0 0-6.179 3.933c-.504 1.082-.93 2.192-1.221 3.35-.651 2.613-.52 5.542.966 7.785 1.487 2.245 4.532 3.54 7.015 2.497 2.425-1.017 4.141-3.985 6.757-3.72 3.422.347 4.278 5.828 7.667 6.416 2.91.506 5.028-2.986 6.032-5.488.473-1.18 1.13-2.302 2.095-3.13 2.596-2.227 4.684-.98 6.737.269 1.455.885 2.89 1.77 4.476 1.419 2.593-.575 3.4-3.952 5.579-5.471 2.022-1.408 4.909-.895 6.908.547 1.998 1.44 3.312 3.62 4.578 5.734.898 1.496 1.843 3.036 3.282 4.024 1.44.987 3.52 1.263 4.88.168 1.231-.988 1.518-2.733 1.53-4.312.012-1.577-.145-3.23.51-4.666s2.523-2.47 3.842-1.603c-.219 1.227-.432 2.523-.001 3.692.432 1.168 1.758 2.104 2.92 1.652 1.236-.483 1.516-2.073 1.61-3.396.264-3.713.043-8.325-3.312-9.941m-34.987-38.21a5.023 5.023 0 0 1-3.395-3.109 5.012 5.012 0 0 1 .655-4.556c1.009-1.392 2.752-2.273 3.31-3.9.284-.823.215-1.72.346-2.579.13-.86.565-1.782 1.394-2.04.724-.226 1.53.151 2.016.734.487.582.714 1.333.895 2.07.653 2.64.876 5.468.025 8.051-.852 2.584-2.585 4.77-5.246 5.33" fill="#f03d5f"/><path d="M440.602 308.709h5.024v-35.876h-5.024Z" fill="#33535f"/><path d="M445.566 275.915c.048.06-1.004.97-2.347 2.03-1.347 1.061-2.475 1.872-2.523 1.812-.046-.062 1.004-.97 2.35-2.031 1.344-1.06 2.473-1.87 2.52-1.81m0 6.322c.048.06-1.004.97-2.347 2.03-1.347 1.06-2.475 1.871-2.523 1.811-.046-.061 1.004-.968 2.35-2.029 1.344-1.061 2.473-1.873 2.52-1.812m0 6.321c.048.062-1.004.971-2.347 2.031-1.347 1.061-2.475 1.872-2.523 1.81-.046-.06 1.004-.967 2.35-2.027 1.344-1.062 2.473-1.872 2.52-1.814m0 6.324c.048.06-1.004.968-2.347 2.03-1.347 1.061-2.475 1.87-2.523 1.81-.046-.058 1.004-.968 2.35-2.029 1.344-1.06 2.473-1.87 2.52-1.81m0 6.322c.048.06-1.004.968-2.347 2.028-1.347 1.061-2.475 1.873-2.523 1.813-.046-.06 1.004-.969 2.35-2.03 1.344-1.062 2.473-1.871 2.52-1.811m-2.367-34.073c.077 0 .139 1.334.139 2.98s-.062 2.981-.14 2.981c-.075 0-.138-1.335-.138-2.981s.063-2.98.139-2.98" fill="#17282f"/><path d="M368.091 372.138c-2.22-2.358-2.083-6.528.288-8.734 1.303-1.213 3.056-1.8 4.553-2.765 1.498-.964 2.836-2.62 2.482-4.364-.25-1.23-1.308-2.317-1.076-3.55.228-1.21 1.697-1.86 2.902-1.602 1.204.258 2.162 1.158 2.968 2.09a21.292 21.292 0 0 1 4.999 11.36c.235 2.023-.325 5.769-1.784 7.19 0 0-3.812.363-6.356.208l-8.976.167m24.793 0c-2.22-2.358-2.082-6.528.287-8.734 1.304-1.213 3.056-1.8 4.553-2.765 1.499-.964 2.836-2.62 2.482-4.364-.251-1.23-1.308-2.317-1.075-3.55.228-1.21 1.697-1.86 2.903-1.602 1.204.258 2.161 1.158 2.966 2.09a21.27 21.27 0 0 1 4.998 11.36c.237 2.023-.324 5.769-1.782 7.19 0 0-3.814.363-6.356.208l-8.976.167m24.792 0c-2.22-2.358-2.081-6.528.288-8.734 1.304-1.213 3.056-1.8 4.554-2.765 1.497-.964 2.836-2.62 2.48-4.364-.25-1.23-1.307-2.317-1.074-3.55.228-1.21 1.696-1.86 2.903-1.602 1.204.258 2.161 1.158 2.967 2.09a21.28 21.28 0 0 1 4.997 11.36c.237 2.023-.324 5.769-1.783 7.19 0 0-3.813.363-6.354.208l-8.978.167m24.794 0c-2.22-2.358-2.082-6.528.288-8.734 1.302-1.213 3.056-1.8 4.553-2.765 1.497-.964 2.836-2.62 2.48-4.364-.25-1.23-1.307-2.317-1.073-3.55.228-1.21 1.696-1.86 2.9-1.602 1.206.258 2.162 1.158 2.969 2.09a21.28 21.28 0 0 1 4.997 11.36c.238 2.023-.324 5.769-1.782 7.19 0 0-3.814.363-6.358.208l-8.974.167m24.791 0c-2.218-2.358-2.08-6.528.29-8.734 1.301-1.213 3.056-1.8 4.553-2.765 1.497-.964 2.836-2.62 2.48-4.364-.25-1.23-1.307-2.317-1.075-3.55.228-1.21 1.698-1.86 2.902-1.602 1.205.258 2.162 1.158 2.97 2.09a21.3 21.3 0 0 1 4.996 11.36c.236 2.023-.324 5.769-1.782 7.19 0 0-3.815.363-6.358.208l-8.976.167m24.792 0c-2.217-2.358-2.08-6.528.29-8.734 1.302-1.213 3.056-1.8 4.553-2.765 1.496-.964 2.835-2.62 2.481-4.364-.25-1.23-1.308-2.317-1.074-3.55.228-1.21 1.696-1.86 2.901-1.602 1.205.258 2.163 1.158 2.967 2.09a21.282 21.282 0 0 1 4.998 11.36c.238 2.023-.325 5.769-1.78 7.19 0 0-3.816.363-6.358.208l-8.978.167" fill="#f03d5f"/><path d="M367.644 371.596c-.758-1.05-1.134-2.352-1.134-3.654 0-1.69.628-3.383 1.87-4.538 1.302-1.213 3.055-1.8 4.552-2.765 1.334-.859 2.542-2.265 2.54-3.796a2.85 2.85 0 0 0-.058-.568c-.226-1.11-1.11-2.102-1.11-3.193 0-.117.011-.236.034-.357.194-1.032 1.294-1.658 2.362-1.658.183 0 .364.019.54.056 1.204.258 2.162 1.158 2.968 2.09a21.292 21.292 0 0 1 4.999 11.36c.035.297.052.63.052.987 0 1.967-.527 4.666-1.632 5.982l-15.983.054m24.734-.084c-.719-1.034-1.075-2.3-1.075-3.57-.001-1.69.628-3.383 1.868-4.538 1.304-1.213 3.056-1.8 4.553-2.765 1.331-.856 2.536-2.26 2.539-3.785 0-.192-.017-.386-.057-.579-.226-1.11-1.11-2.102-1.108-3.193 0-.117.01-.236.033-.357.195-1.032 1.293-1.658 2.361-1.658.183 0 .366.019.542.056 1.204.258 2.161 1.158 2.966 2.09a21.27 21.27 0 0 1 4.998 11.36c.036.297.053.63.053.987 0 1.926-.504 4.554-1.563 5.9l-16.11.052m24.736-.082c-.68-1.02-1.018-2.254-1.018-3.488-.001-1.69.628-3.383 1.868-4.538 1.304-1.213 3.056-1.8 4.554-2.765 1.33-.856 2.536-2.26 2.538-3.785 0-.192-.018-.386-.057-.579-.227-1.11-1.11-2.102-1.108-3.193 0-.117.01-.236.033-.357.195-1.032 1.294-1.658 2.362-1.658.182 0 .364.019.54.056 1.205.258 2.162 1.158 2.968 2.09a21.28 21.28 0 0 1 4.997 11.36c.035.297.052.63.053.987 0 1.886-.484 4.447-1.5 5.815l-16.23.055m24.738-.084c-.644-1.003-.962-2.203-.964-3.404 0-1.69.63-3.383 1.87-4.538 1.302-1.213 3.056-1.8 4.553-2.765 1.33-.856 2.536-2.26 2.539-3.785a2.85 2.85 0 0 0-.06-.579c-.224-1.11-1.107-2.102-1.106-3.193 0-.117.01-.236.034-.357.194-1.032 1.293-1.658 2.36-1.658.184 0 .365.019.54.056 1.206.258 2.162 1.158 2.969 2.09a21.28 21.28 0 0 1 4.997 11.36c.035.297.052.63.052.987.002 1.848-.464 4.344-1.437 5.731l-16.347.055m24.74-.083c-.61-.987-.91-2.153-.91-3.321 0-1.69.628-3.383 1.869-4.538 1.301-1.213 3.056-1.8 4.553-2.765 1.33-.856 2.536-2.26 2.537-3.785a2.757 2.757 0 0 0-.057-.579c-.225-1.11-1.108-2.102-1.108-3.193 0-.117.01-.236.033-.357.195-1.032 1.295-1.658 2.362-1.658.182 0 .364.019.54.056 1.205.258 2.162 1.158 2.97 2.09a21.3 21.3 0 0 1 4.996 11.36c.035.297.052.63.052.987.002 1.812-.446 4.246-1.38 5.647l-16.457.056m24.741-.084c-.574-.968-.858-2.101-.858-3.237-.002-1.69.628-3.383 1.868-4.538 1.302-1.213 3.056-1.8 4.553-2.765 1.333-.859 2.54-2.265 2.539-3.796a2.85 2.85 0 0 0-.058-.568c-.226-1.11-1.109-2.102-1.108-3.193 0-.117.011-.236.034-.357.194-1.032 1.293-1.658 2.361-1.658.183 0 .364.019.54.056 1.205.258 2.163 1.158 2.967 2.09a21.282 21.282 0 0 1 4.998 11.36c.036.297.054.63.054.987 0 1.776-.43 4.15-1.327 5.563l-16.563.056" fill="#fbcbd7"/><path d="M357.64 446.1h167.852v-74.105H357.64Z" fill="#f03d5f"/><path d="M313.817 541.303v13.657h254.947v-13.657H313.817" fill="#17282f"/><path d="M543.104 541.303H339.478a3.595 3.595 0 0 1-3.595-3.595v-83.665a9.719 9.719 0 0 1 9.721-9.722h197.5a3.595 3.595 0 0 1 3.595 3.595v89.792a3.595 3.595 0 0 1-3.595 3.595" fill="#f03d5f"/><path d="M546.699 527.473v-1.109a1.012 1.012 0 0 1 .152.445c.026.253-.032.474-.152.664" fill="#a7a9a8"/><path d="M368.138 532.705c-10.01 0-19.968-.703-29.847-2.736-1.375-.282-2.115-1.55-2.004-2.77 9.976 2.03 20.035 2.734 30.143 2.734 11.406 0 22.88-.896 34.386-1.79 11.506-.896 23.043-1.793 34.574-1.793 2.973 0 5.945.06 8.917.195 10.637.48 21.255 1.888 31.886 1.888 1.523 0 3.044-.028 4.568-.093 8.34-.353 16.6-1.778 24.931-2.25a142.28 142.28 0 0 1 8.085-.206c3.146 0 6.294.073 9.44.145 3.148.074 6.295.146 9.438.146 4.021 0 8.036-.119 12.04-.51.153-.015.313-.037.474-.069.623.095 1.246.316 1.53.768v1.11c-.374.592-1.335.888-2.116.966-3.96.39-7.931.508-11.908.508-3.114 0-6.232-.072-9.35-.145-3.117-.074-6.234-.147-9.35-.147-2.668 0-5.334.055-7.996.206-8.248.474-16.424 1.897-24.678 2.25-1.509.066-3.018.095-4.528.095-10.52 0-21.027-1.41-31.554-1.89a193.352 193.352 0 0 0-8.827-.194c-11.412 0-22.832.896-34.218 1.792-11.39.896-22.744 1.79-34.036 1.79" fill="#ba2c42"/><path d="M335.883 476.59a9.085 9.085 0 0 1-.272-.18l.055-5.354c.072.05.144.096.217.143v5.392" fill="#a7a9a8"/><path d="M423.11 485.026c-3.068 0-5.65-2.623-6.61-5.545-.793-2.421-.721-5.006-.492-7.562.186 1.338.56 2.647 1.231 3.893 1.012 1.879 2.739 3.368 4.843 3.732a6.097 6.097 0 0 0 1.026.09c3.988 0 6.682-4.166 7.494-8.058.926-4.448.466-9.276 3.198-13.136.842-1.186 2.164-2.026 3.604-2.026.074 0 .148.002.223.007 3.381.203 3.776 4.412 6.36 5.863a3.74 3.74 0 0 0 1.863.488c2.277 0 4.629-1.925 6.08-3.937 2.037-2.825 4.01-6.37 7.745-6.37.105 0 .212.003.32.009 1.827.095 3.47 1.104 4.648 2.505 3.725 4.437 2.897 10.672 6.8 15.01 1.208 1.346 2.88 2.27 4.69 2.27h.003c3.81-.004 5.353-3.496 7.29-6.178 1.214-1.683 3.26-3.207 5.167-3.207.643 0 1.271.173 1.846.57 2.156 1.496 2.15 5.358 4.674 6.07.252.072.495.103.728.103 2.66 0 4.264-4.253 7.122-5.078a3.723 3.723 0 0 1 1.038-.152c3.708 0 6.011 5.912 10.024 6.967a4.853 4.853 0 0 0 1.234.16c3.08 0 5.813-2.951 7.028-5.972 1.604-3.988 1.878-8.614 5.249-11.646a6.025 6.025 0 0 1 3.996-1.549 5.49 5.49 0 0 1 1.944.353c3.004 1.14 2.49 3.738 3.433 5.754.802 1.714 3.035 2.617 5.194 2.617 1.986 0 3.91-.766 4.596-2.366v5.391c-.686 1.602-2.61 2.367-4.598 2.367-2.157 0-4.39-.903-5.192-2.618-.606-1.297-.61-2.836-1.337-4.071-.784-1.335-2.16-1.91-3.655-1.91-2.066 0-4.362 1.099-5.645 2.81-2.212 2.95-2.608 6.838-3.985 10.26-1.215 3.02-3.948 5.971-7.028 5.971-.406 0-.819-.05-1.234-.16-4.013-1.054-6.316-6.966-10.024-6.966a3.7 3.7 0 0 0-1.038.152c-2.858.825-4.462 5.079-7.122 5.079a2.68 2.68 0 0 1-.728-.105c-2.524-.712-2.518-4.573-4.674-6.069a3.18 3.18 0 0 0-1.846-.572c-1.908 0-3.953 1.526-5.168 3.21-1.625 2.249-2.973 5.07-5.614 5.92a4.795 4.795 0 0 1-1.48.234c-2.719 0-5.323-2.245-6.61-4.795-1.525-3.01-1.906-6.482-3.29-9.558-1.261-2.804-3.877-5.413-6.845-5.413-.291 0-.586.025-.882.078-3.121.552-4.921 3.717-6.774 6.287-1.451 2.012-3.803 3.937-6.08 3.937-.634 0-1.262-.15-1.863-.488-2.3-1.292-2.865-4.77-5.348-5.661a3.217 3.217 0 0 0-1.088-.19c-1.925 0-3.764 1.703-4.659 3.547-1.726 3.56-1.484 7.723-2.29 11.596-.808 3.874-3.482 8.02-7.438 8.058h-.053m-81.161-6.7c-2.136 0-4.272-.58-6.067-1.735v-5.392c1.795 1.156 3.93 1.736 6.065 1.736 2.088 0 4.175-.555 5.942-1.672 3.19-2.019 5.174-5.77 5.173-9.532 0-.557-.044-1.115-.133-1.667 1.521 2.462 4.421 3.926 7.296 3.926a7.92 7.92 0 0 0 2.86-.523c3.166-1.23 5.33-4.577 5.33-7.95a7.48 7.48 0 0 0-.132-1.414c1.424 1.393 3.406 2.083 5.391 2.083 2.141 0 4.287-.803 5.739-2.388 1.48-1.618 2.368-3.938 5.11-3.938.044 0 .09 0 .135.002 1.36.036 2.635.742 3.504 1.79 2.15 2.59 2.017 5.924 2.179 9.081.133 2.586.592 5.374 2.456 7.169.865.831 2.118 1.273 3.32 1.273 1.392 0 2.713-.592 3.278-1.861.611-1.369.45-3.4 1.87-3.88.154-.054.31-.078.465-.078.908 0 1.756.848 2.117 1.747.423 1.05.48 2.239 1.039 3.225.752 1.33 2.268 1.95 3.823 1.95.84 0 1.69-.18 2.44-.53 2.132-.996 3.621-2.964 5.02-4.857-.159 1.528-.316 3.081-.316 4.619 0 .386.01.771.033 1.156-1.32 1.772-2.748 3.545-4.737 4.474-.75.35-1.6.53-2.44.53-1.555 0-3.071-.62-3.823-1.95-.559-.987-.616-2.175-1.039-3.225-.361-.899-1.209-1.747-2.117-1.747-.155 0-.31.024-.465.078-1.42.48-1.259 2.51-1.87 3.88-.565 1.27-1.886 1.86-3.278 1.86-1.202 0-2.455-.44-3.32-1.273-1.864-1.794-2.323-4.582-2.456-7.167-.131-2.586-.067-5.291-1.222-7.609-.897-1.803-2.853-3.24-4.768-3.24-.545 0-1.086.116-1.598.374-1.462.735-2.236 2.332-3.34 3.539-1.452 1.585-3.598 2.388-5.739 2.388-1.985 0-3.967-.69-5.39-2.083.718 3.805-1.589 7.961-5.2 9.362a7.91 7.91 0 0 1-2.86.524c-2.874 0-5.774-1.465-7.295-3.925.694 4.28-1.376 8.88-5.04 11.199-1.767 1.117-3.854 1.672-5.94 1.672" fill="#ba2c42"/><path d="M544.695 522.77c-45.842-1.8-91.787-3.597-137.561-.537-20.822 1.393-41.927 3.774-62.408-.233-2.362-.463-4.803-1.01-7.146-.458a6.4 6.4 0 0 0-2.297 1.066c-1.781 1.308-1.172 4.148.993 4.59 21.24 4.323 42.834 2.634 64.54.945 14.472-1.127 28.994-2.253 43.49-1.598 12.16.55 24.294 2.311 36.455 1.795 8.34-.353 16.6-1.778 24.931-2.25 5.832-.33 11.68-.195 17.525-.06 7.174.166 14.344.331 21.478-.364 1.044-.102 2.402-.586 2.292-1.629-.102-.95-1.336-1.23-2.292-1.268" fill="#f03d5f"/><path d="M335.883 501.708a3.11 3.11 0 0 1-.432-1.58l.432.01v1.57" fill="#a7a9a8"/><path d="M420.687 505.173c-7.803 0-15.616-.207-23.41-.416-19.631-.525-39.263-1.049-58.893-1.576-1.262-.165-2.06-.744-2.5-1.473v-1.57l58.046 1.553c7.793.208 15.605.416 23.406.416 10.906 0 21.792-.405 32.604-1.78 13.298-1.692 26.564-4.85 39.873-5.564 2.543-.07 5.09-.11 7.64-.11h.16a78.857 78.857 0 0 1 4.935.298c7.93.739 15.7 2.772 23.637 3.436 1.468.122 3.056.19 4.708.19 4.758 0 10.059-.56 14.656-1.974l1.115.002h.035v3.663c-3.291 1.496-5.856 1.941-8.432 1.941-2.64 0-5.29-.469-8.735-.757-7.937-.662-15.707-2.696-23.637-3.435a80.484 80.484 0 0 0-7.464-.334c-15.082 0-30.092 3.795-45.145 5.71-10.81 1.375-21.695 1.78-32.6 1.78m-64.307 9.37c-.241 0-.796-.279-1.377-.708-.708-.523-1.19-1.07-1.075-1.224.02-.028.059-.042.11-.042.243 0 .797.278 1.377.707.708.523 1.19 1.07 1.076 1.226-.02.027-.059.04-.11.04m18.695-4.511a.192.192 0 0 1-.117-.036c-.15-.117-.063-.488.2-.824.205-.267.458-.434.63-.434a.18.18 0 0 1 .116.036c.152.117.063.486-.198.823-.207.267-.459.435-.63.435m23.374 5.973c-.198 0-.554-.22-.954-.473-.481-.314-.892-.59-.84-.777.019-.075.13-.12.294-.12.234 0 .58.092.922.311.582.375.827.909.682 1.027a.153.153 0 0 1-.104.032m10.657-6.5c-.063 0-.11-.016-.136-.05-.116-.154.22-.603.752-1.006.41-.31.817-.503 1.033-.503.064 0 .111.016.136.05.116.154-.221.604-.75 1.008-.411.31-.818.501-1.035.501m25.523 4.193c-.18 0-.452-.277-.65-.674-.222-.45-.264-.883-.092-.968a.132.132 0 0 1 .064-.015c.179 0 .452.277.65.675.224.45.265.882.093.968a.138.138 0 0 1-.065.014m33.737-5.78c-.087 0-.152-.024-.186-.073-.105-.16.172-.53.622-.83.31-.207.622-.326.82-.326.088 0 .152.023.185.072.105.16-.172.532-.621.83-.31.209-.623.326-.82.326m28.141 6.267c-.201 0-.668-.659-1.39-1.279-.75-.67-1.507-1.05-1.449-1.238.011-.049.086-.075.206-.075.34 0 1.048.216 1.701.792.888.77 1.139 1.73.964 1.793a.07.07 0 0 1-.032.007" fill="#ba2c42"/><path d="M518.077 505.19c-.022 0-.04-.006-.052-.018-.142-.127.384-.952 1.178-1.843.722-.813 1.418-1.4 1.644-1.4.021 0 .038.006.05.016.144.128-.384.954-1.176 1.845-.724.813-1.418 1.4-1.644 1.4m16.142 7.886c-.202 0-.642-.461-1.343-.684-.752-.27-1.43-.126-1.513-.305-.088-.12.366-.468 1.048-.468.21 0 .442.033.688.116 1.037.346 1.353 1.276 1.166 1.33a.094.094 0 0 1-.046.011m-18.487 18.308c-.693 0-1.255-.156-1.255-.347 0-.192.562-.347 1.255-.347.695 0 1.256.155 1.256.347 0 .191-.561.347-1.256.347" fill="#ba2c42"/><path d="M335.038 500.116c19.63.526 39.26 1.05 58.892 1.575 18.686.5 37.464.994 56.01-1.364 17.533-2.23 35.008-7.012 52.608-5.376 7.93.739 15.7 2.772 23.637 3.436 6.807.568 16.148-.05 22.812-3.079.879-.4.611-1.715-.354-1.713-17.42.001-37.106.07-54.204.062a6313212.012 6313212.012 0 0 0-155.42-.063c-1.948 0-3.992.022-5.696.966-1.704.944-2.028 5.064 1.715 5.556" fill="#f03d5f"/><path d="M458.863 484.87a.056.056 0 0 1-.035-.011c-.156-.114.407-1.144 1.256-2.302.799-1.088 1.566-1.9 1.783-1.9.013 0 .025.002.035.01.154.112-.407 1.143-1.258 2.301-.797 1.088-1.564 1.901-1.781 1.901m24.81.555c-.194 0-.62-.6-.982-1.4-.387-.849-.558-1.601-.383-1.681a.083.083 0 0 1 .033-.007c.194 0 .618.6.982 1.4.386.85.557 1.603.382 1.681a.09.09 0 0 1-.033.007m17.216-2.193c-.064 0-.11-.016-.13-.05-.107-.158.369-.664 1.065-1.126.55-.368 1.073-.599 1.318-.599.064 0 .11.016.132.048.106.162-.372.664-1.065 1.128-.552.368-1.075.599-1.32.599m32.548.217c-.221 0-.832-.49-1.455-1.184-.696-.772-1.144-1.5-1-1.63a.086.086 0 0 1 .059-.02c.221 0 .833.493 1.457 1.185.695.772 1.142 1.503 1 1.63-.014.014-.036.019-.061.019m-136.016 5.076a.126.126 0 0 1-.089-.03c-.135-.137.193-.684.733-1.225.459-.458.923-.764 1.135-.764.039 0 .07.01.09.031.135.135-.193.684-.733 1.224-.458.457-.922.764-1.136.764m-17.53-5.793c-.062 0-.106-.016-.127-.048-.108-.159.363-.668 1.053-1.139.55-.375 1.072-.612 1.316-.612.062 0 .106.016.128.048.108.158-.364.668-1.053 1.137-.55.376-1.073.614-1.317.614m-29.635 4.413c-.235 0-.743-.268-1.1-.844-.45-.714-.368-1.432-.181-1.441h.012c.192 0 .405.522.758 1.074.348.57.732.997.628 1.163-.018.032-.06.048-.117.048m16.13-12.88a.115.115 0 0 1-.08-.028c-.146-.124.111-.662.575-1.204.396-.463.818-.777 1.02-.777a.12.12 0 0 1 .082.026c.145.124-.112.664-.575 1.205-.397.464-.819.777-1.021.777" fill="#ba2c42"/><path d="M335.611 471.019c3.57 2.461 8.613 2.561 12.279.244 3.664-2.318 5.734-6.919 5.04-11.199 2.037 3.295 6.545 4.804 10.156 3.403 3.61-1.403 5.917-5.559 5.198-9.364 2.96 2.897 8.332 2.75 11.13-.305 1.504-1.643 2.396-4.014 5.245-3.936 1.36.036 2.635.742 3.504 1.79 2.15 2.59 2.017 5.924 2.179 9.081.133 2.586.592 5.374 2.456 7.169 1.866 1.794 5.544 1.776 6.598-.588.611-1.369.45-3.4 1.87-3.88 1.07-.365 2.16.618 2.582 1.669.423 1.05.48 2.239 1.039 3.225 1.16 2.048 4.128 2.416 6.263 1.42 2.132-.996 3.621-2.964 5.02-4.857-.386 3.688-.756 7.532 1.069 10.921 1.012 1.879 2.739 3.368 4.843 3.732 4.55.787 7.64-3.75 8.52-7.968.926-4.448.466-9.276 3.198-13.136.884-1.248 2.302-2.112 3.827-2.02 3.381.204 3.776 4.413 6.36 5.864 2.761 1.554 6.088-.879 7.943-3.449 2.094-2.904 4.12-6.57 8.065-6.361 1.827.095 3.47 1.104 4.648 2.505 3.725 4.437 2.897 10.672 6.8 15.01 1.21 1.346 2.882 2.27 4.693 2.27 3.81-.004 5.353-3.496 7.29-6.178 1.625-2.25 4.733-4.217 7.013-2.637 2.156 1.496 2.15 5.358 4.674 6.07 3.115.878 4.74-4.076 7.85-4.975 4.345-1.256 6.688 5.665 11.062 6.815 3.566.937 6.887-2.392 8.262-5.812 1.604-3.988 1.878-8.614 5.249-11.646 1.607-1.444 3.92-1.963 5.94-1.196 3.004 1.14 2.49 3.738 3.433 5.754 1.538 3.291 8.36 3.591 9.79.251l.888-11.677a3.212 3.212 0 0 0-3.195-3.454l-203.62-.53a5.83 5.83 0 0 0-5.864 6.015l.703 21.96" fill="#f03d5f"/><path d="M417.336 502.107c-7.801 0-15.613-.208-23.406-.416l-58.892-1.575c-2.12-.279-2.935-1.721-2.933-3.09 0-1.05.48-2.057 1.218-2.466 1.672-.925 3.672-.965 5.588-.965h.108a6313212.013 6313212.013 0 0 1 155.42.062h2.764c16.433 0 34.953-.06 51.44-.062h.001c.561 0 .885.445.887.896a.878.878 0 0 1-.534.817 26.873 26.873 0 0 1-1.384.582 38.01 38.01 0 0 1-.493.185c-4.93 1.804-10.917 2.501-16.227 2.501a57.22 57.22 0 0 1-4.708-.189c-7.937-.664-15.706-2.697-23.637-3.436a81.085 81.085 0 0 0-7.464-.335c-15.081 0-30.092 3.796-45.144 5.71-10.812 1.376-21.698 1.78-32.604 1.78m-50.906 27.827c-10.112 0-20.174-.704-30.154-2.736-1.298-.265-2.037-1.392-2.037-2.533a2.523 2.523 0 0 1 1.044-2.056 6.4 6.4 0 0 1 2.297-1.066 9.176 9.176 0 0 1 2.124-.233c1.672 0 3.367.366 5.022.691 8.425 1.648 16.953 2.216 25.526 2.216 12.268-.001 24.626-1.162 36.882-1.983 17.93-1.198 35.886-1.652 53.853-1.652 27.9 0 55.824 1.094 83.708 2.188.956.038 2.19.318 2.292 1.268.004.04.006.08.006.12-.001.96-1.294 1.411-2.298 1.509-4.004.39-8.019.509-12.04.509-3.143 0-6.29-.072-9.438-.146-3.146-.072-6.294-.145-9.44-.145-2.697 0-5.393.053-8.085.207-8.332.471-16.592 1.896-24.93 2.25-1.525.064-3.046.092-4.569.092-10.631 0-21.249-1.407-31.886-1.888a197.342 197.342 0 0 0-8.917-.195c-11.531 0-23.068.897-34.574 1.793-11.506.894-22.98 1.79-34.386 1.79" fill="#f89db4"/><path d="M357.64 413.456a2.136 2.136 0 0 1-.48-1.55l.48.096v1.454" fill="#0f191d"/><path d="M382.603 416.306c-7.995 0-15.95-.563-23.84-2.187a1.96 1.96 0 0 1-1.123-.663v-1.454c7.814 1.548 15.688 2.088 23.602 2.088 9.113 0 18.278-.716 27.47-1.432 9.191-.715 18.408-1.431 27.619-1.431 2.376 0 4.75.048 7.125.156 8.5.383 16.983 1.51 25.479 1.51 1.214 0 2.43-.025 3.645-.075 6.661-.284 13.261-1.422 19.919-1.799a114.51 114.51 0 0 1 6.456-.164c2.513 0 5.028.057 7.544.116 2.514.059 5.03.116 7.541.116 3.212 0 6.419-.095 9.616-.407a3.81 3.81 0 0 0 .381-.056c.639.098 1.276.362 1.342.971.088.833-.988 1.22-1.812 1.3-3.166.312-6.339.407-9.518.407-2.486 0-4.976-.058-7.465-.116-2.49-.059-4.98-.116-7.468-.116-2.132 0-4.263.042-6.39.164-6.589.378-13.12 1.514-19.714 1.798a83.88 83.88 0 0 1-3.616.075c-8.406 0-16.8-1.125-25.21-1.51-2.351-.107-4.7-.155-7.051-.155-9.119 0-18.243.716-27.34 1.432-9.099.716-18.17 1.432-27.192 1.432" fill="#ba2c42"/><path d="M523.657 408.366c-36.622-1.436-73.327-2.872-109.897-.427-16.634 1.112-33.496 3.013-49.857-.188-1.887-.37-3.837-.807-5.71-.365a5.082 5.082 0 0 0-1.833.85c-1.422 1.046-.938 3.316.792 3.667 16.967 3.455 34.219 2.105 51.56.755 11.562-.899 23.163-1.799 34.744-1.275 9.715.439 19.408 1.845 29.124 1.435 6.661-.284 13.261-1.422 19.919-1.799 4.657-.264 9.33-.156 14-.048 5.73.132 11.458.265 17.157-.29.835-.08 1.92-.469 1.83-1.3-.08-.762-1.066-.986-1.829-1.015" fill="#f03d5f"/><path d="M525.492 384.35v-4.607c.076-.165.144-.335.203-.507.278 1.2.426 2.416.244 3.628a5.623 5.623 0 0 1-.447 1.486" fill="#a7a9a8"/><path d="M501.065 397.152c-2.129 0-4.353-1.133-5.902-2.697-2.218-2.233-3.53-5.188-5.364-7.745-1.778-2.478-4.407-4.722-7.428-4.722-.096 0-.195.003-.292.008-3.027.143-5.579 2.522-8.598 2.774a7.36 7.36 0 0 1-.556.022c-1.456 0-2.902-.448-4.338-.897-1.435-.448-2.859-.896-4.267-.896a5.68 5.68 0 0 0-1.71.252c-3.642 1.14-5.14 5.996-8.807 7.05a5.285 5.285 0 0 1-1.464.206c-2.124 0-4.157-1.232-6.205-2.464s-4.112-2.464-6.3-2.464c-.32 0-.64.027-.963.083-5.093.877-6.564 8.245-11.447 9.944a6.298 6.298 0 0 1-2.085.344c-2.507 0-5.043-1.363-7.108-2.934-2.643-2.01-5.113-4.482-8.323-5.334a10.004 10.004 0 0 0-2.577-.332c-5.087 0-9.968 3.652-14.884 5.74-3.276 1.393-6.835 2.088-10.395 2.088-3.732 0-7.465-.764-10.873-2.29-6.657-2.98-13.539-11.786-13.539-20.893l.127.003c2.38 6.778 6.873 13.357 13.412 16.282 3.408 1.526 7.141 2.29 10.873 2.29 3.56 0 7.119-.695 10.395-2.087 4.917-2.09 9.797-5.741 14.884-5.741.853 0 1.712.102 2.577.332 3.21.853 5.68 3.324 8.323 5.334 2.064 1.572 4.601 2.934 7.107 2.934.7 0 1.4-.107 2.086-.346 4.883-1.697 6.354-9.064 11.447-9.944.323-.054.643-.08.961-.08 2.188 0 4.252 1.231 6.3 2.464 2.05 1.232 4.082 2.464 6.207 2.464.483 0 .97-.064 1.464-.205 3.668-1.055 5.165-5.912 8.808-7.052a5.67 5.67 0 0 1 1.708-.25c1.41 0 2.832.447 4.268.895 1.434.448 2.882.896 4.338.896.186 0 .371-.008.556-.022 3.02-.25 5.571-2.63 8.598-2.774.097-.005.194-.008.29-.008 3.022 0 5.652 2.246 7.43 4.723 1.834 2.556 3.146 5.51 5.364 7.745 1.55 1.563 3.773 2.696 5.902 2.696.914 0 1.811-.209 2.63-.682 2.572-1.487 3.27-4.786 4.152-7.623.854-2.753 2.77-5.81 5.593-5.81.085 0 .17.003.257.01 3.068.199 5.127 3.976 8.14 3.976.08 0 .162-.003.244-.008 1.527-.103 2.76-1.248 3.411-2.664v4.607c-.65 1.417-1.884 2.561-3.41 2.664-.083.005-.166.01-.247.01-3.012-.002-5.071-3.778-8.138-3.978a3.343 3.343 0 0 0-.257-.01c-2.823 0-4.739 3.058-5.593 5.811-.882 2.836-1.58 6.136-4.152 7.623-.819.473-1.715.682-2.63.682" fill="#ba2c42"/><path d="M357.64 371.63c2.346 6.906 6.882 13.672 13.54 16.65 6.656 2.98 14.555 3.055 21.267.203 5.741-2.44 11.433-7.01 17.461-5.41 3.21.854 5.68 3.325 8.323 5.335 2.643 2.012 6.057 3.68 9.193 2.588 4.883-1.697 6.354-9.064 11.447-9.944 2.55-.438 4.916.972 7.261 2.384 2.515 1.512 5.006 3.024 7.67 2.26 3.669-1.056 5.166-5.913 8.809-7.053 1.964-.615 3.959.015 5.976.645 1.617.504 3.25 1.01 4.894.874 3.02-.25 5.571-2.63 8.598-2.774 3.142-.15 5.885 2.16 7.72 4.715 1.834 2.556 3.146 5.51 5.364 7.745 2.214 2.235 5.808 3.59 8.532 2.014 2.572-1.487 3.27-4.786 4.152-7.623.88-2.836 2.886-5.993 5.85-5.8 3.15.204 5.236 4.181 8.384 3.968 2.038-.137 3.552-2.132 3.858-4.15.304-2.02.686-5.246.08-7.195l-168.379.568" fill="#f03d5f"/><path d="M381.26 430.809a.04.04 0 0 1-.025-.007c-.155-.114.679-1.52 1.861-3.14 1.131-1.552 2.174-2.739 2.396-2.739a.04.04 0 0 1 .026.008c.154.113-.679 1.517-1.86 3.139-1.132 1.552-2.175 2.739-2.398 2.739m23.375-1.131c-.244 0-.959-.466-1.72-1.132-.863-.756-1.461-1.486-1.335-1.629.015-.017.039-.025.071-.025.244 0 .959.464 1.721 1.131.863.756 1.46 1.484 1.334 1.63a.098.098 0 0 1-.071.025m-9.961 7.051c-.056 0-.1-.014-.124-.046-.12-.15.22-.621.758-1.052.427-.341.852-.556 1.07-.556.057 0 .1.015.124.046.12.15-.222.62-.76 1.051-.427.343-.851.557-1.068.557m32.26-11.755c-.208 0-.818-.671-1.422-1.576-.646-.971-1.042-1.843-.882-1.951a.073.073 0 0 1 .038-.01c.21 0 .819.671 1.423 1.575.647.972 1.043 1.846.883 1.95a.061.061 0 0 1-.04.012m-1.135 13.545c-.48 0-.801-.14-.78-.252.02-.198.753-.274 1.56-.596.71-.266 1.253-.635 1.477-.635.032 0 .058.008.076.024.148.112-.317.881-1.302 1.259-.376.147-.735.2-1.031.2m24.165-11.579c-.226 0-.93-.538-1.353-1.5-.479-1.068-.336-2.04-.152-2.04h.004c.196 0 .364.835.781 1.758.406.93.916 1.616.779 1.76-.012.014-.032.022-.059.022m.506 9.19c-.243 0-.4-.04-.42-.123-.048-.185.612-.515 1.473-.737.48-.124.923-.188 1.228-.188.241 0 .397.04.419.122.048.187-.612.517-1.474.739-.48.123-.922.186-1.226.186m20.23-9.597c-.2 0-.747-.778-1.259-1.804-.54-1.078-.837-2.022-.666-2.109a.062.062 0 0 1 .028-.005c.2 0 .746.778 1.258 1.803.54 1.08.838 2.024.667 2.109a.068.068 0 0 1-.028.006m8.304 10.96c-.033 0-.059-.009-.072-.028-.13-.15.352-.753.755-1.574.412-.81.608-1.551.802-1.551h.006c.185 0 .297.901-.187 1.861-.417.843-1.072 1.292-1.304 1.292m9.233-12.887c-.2 0-.814-.767-.672-1.887.13-1.082.86-1.674 1.088-1.674.028 0 .05.008.06.027.132.147-.358.793-.458 1.73-.132.934.188 1.682.024 1.79-.01.01-.024.014-.042.014m17.347 9.326c-.19 0-.51-.83-.721-1.885-.218-1.08-.243-1.986-.054-2.023l.012-.001c.19 0 .508.83.722 1.886.217 1.08.24 1.983.053 2.022l-.012.001m8.516-1.953a.102.102 0 0 1-.057-.016c-.16-.107.062-.718.494-1.363.39-.582.818-.994 1.015-.994.023 0 .041.006.057.017.16.106-.061.717-.496 1.364-.388.58-.816.992-1.013.992m1.1-32.862a.121.121 0 0 1-.067-.017c-.162-.101-.025-.616.307-1.15.293-.474.641-.802.83-.802.025 0 .046.005.065.017.164.102.026.615-.306 1.151-.293.472-.64.801-.829.801m-34.733 2.024c-.199 0-.747-.778-1.259-1.805-.541-1.079-.839-2.023-.667-2.11a.062.062 0 0 1 .028-.005c.2 0 .746.78 1.26 1.804.54 1.08.838 2.024.666 2.11a.072.072 0 0 1-.028.006m4.325-9.773c-.192 0-.348-.088-.348-.196 0-.108.156-.195.348-.195s.347.087.347.195c0 .108-.155.196-.347.196m-29.976 8.657a.058.058 0 0 1-.038-.012c-.152-.118.42-1.093 1.274-2.18.798-1.01 1.559-1.76 1.782-1.76.016 0 .029.004.04.012.15.12-.422 1.094-1.276 2.18-.798 1.011-1.562 1.76-1.782 1.76m-13.752-3.965a.06.06 0 0 1-.026-.005c-.18-.067-.063-.822.26-1.684.309-.822.692-1.446.884-1.446a.07.07 0 0 1 .028.006c.178.068.062.821-.262 1.684-.308.821-.692 1.445-.884 1.445m-10.366 4.37c-.108 0-.183-.025-.208-.078-.086-.17.369-.573 1.016-.896.449-.225.874-.352 1.12-.352.108 0 .182.024.208.076.085.172-.37.573-1.016.897-.45.224-.874.352-1.12.352m-24.152-1.984c-.188 0-.534-.333-.822-.81-.326-.539-.457-1.055-.293-1.155a.127.127 0 0 1 .064-.017c.188 0 .533.334.823.813.325.537.457 1.055.293 1.153a.132.132 0 0 1-.065.016m-.179-3.53a.15.15 0 0 1-.068-.016c-.172-.086-.135-.506.081-.936.19-.38.455-.642.632-.642a.17.17 0 0 1 .07.015c.17.087.136.505-.082.937-.189.38-.454.642-.633.642m-16.14 11.694c-.201 0-.837-.953-1.457-2.194-.65-1.295-1.035-2.415-.863-2.499a.046.046 0 0 1 .024-.005c.203 0 .837.952 1.459 2.194.648 1.294 1.033 2.412.861 2.499a.064.064 0 0 1-.024.005m-17.947-5.866c-.19 0-.346-.524-.346-1.172 0-.647.156-1.172.346-1.172.192 0 .347.525.347 1.172 0 .648-.155 1.172-.347 1.172m-11.316-1.562h-.013c-.19-.028-.256-.662-.148-1.416.105-.74.339-1.32.527-1.32h.012c.19.028.257.663.15 1.418-.108.738-.34 1.318-.528 1.318m41.286 5.555c-.159 0-.259-.028-.279-.085-.06-.183.677-.592 1.648-.916.659-.22 1.255-.343 1.59-.343.158 0 .258.028.278.087.061.181-.677.59-1.648.914-.659.22-1.255.343-1.59.343" fill="#ba2c42"/><path d="M423.108 479.633c-.333 0-.676-.029-1.026-.089-2.104-.364-3.831-1.853-4.843-3.732-.879-1.633-1.25-3.37-1.352-5.146a19.632 19.632 0 0 1-.033-1.156c0-1.538.157-3.091.316-4.62-1.399 1.894-2.888 3.862-5.02 4.858-.75.35-1.6.53-2.44.53-1.555 0-3.071-.62-3.823-1.95-.559-.986-.616-2.174-1.039-3.225-.361-.899-1.209-1.747-2.117-1.747-.155 0-.31.024-.465.077-1.42.48-1.259 2.512-1.87 3.88-.565 1.27-1.886 1.862-3.278 1.862-1.202 0-2.455-.442-3.32-1.273-1.864-1.795-2.323-4.583-2.456-7.169-.162-3.157-.03-6.49-2.179-9.08-.87-1.049-2.144-1.755-3.504-1.791-.045-.002-.09-.002-.135-.002-2.742 0-3.63 2.32-5.11 3.938-1.452 1.585-3.598 2.388-5.739 2.388-1.985 0-3.967-.69-5.39-2.083.089.468.131.941.131 1.414 0 3.373-2.164 6.72-5.33 7.95a7.901 7.901 0 0 1-2.86.523c-2.875 0-5.775-1.464-7.296-3.926.09.552.133 1.11.133 1.667.001 3.761-1.983 7.513-5.173 9.532-1.767 1.117-3.854 1.672-5.942 1.672-2.242 0-4.488-.642-6.337-1.916l-.703-21.96-.002-.192a5.83 5.83 0 0 1 5.83-5.823h.036l203.62.53a3.212 3.212 0 0 1 3.195 3.454l-.888 11.677c-.686 1.6-2.61 2.366-4.596 2.366-2.159 0-4.392-.903-5.194-2.617-.942-2.016-.429-4.614-3.433-5.754a5.479 5.479 0 0 0-1.944-.353c-1.45 0-2.89.556-3.996 1.549-3.37 3.032-3.645 7.658-5.25 11.646-1.214 3.02-3.947 5.973-7.027 5.973-.406 0-.819-.052-1.234-.161-4.013-1.055-6.316-6.967-10.024-6.967-.334 0-.68.048-1.038.152-2.858.825-4.462 5.078-7.122 5.078-.233 0-.476-.031-.728-.103-2.524-.712-2.518-4.574-4.674-6.07a3.185 3.185 0 0 0-1.846-.57c-1.908 0-3.953 1.524-5.168 3.207-1.936 2.682-3.48 6.174-7.289 6.178h-.004c-1.81 0-3.481-.924-4.69-2.27-3.902-4.338-3.074-10.573-6.8-15.01-1.176-1.401-2.82-2.41-4.647-2.505a6.655 6.655 0 0 0-.32-.008c-3.735 0-5.708 3.544-7.745 6.369-1.451 2.012-3.803 3.937-6.08 3.937a3.738 3.738 0 0 1-1.863-.488c-2.584-1.45-2.979-5.66-6.36-5.863a3.917 3.917 0 0 0-.223-.007c-1.44 0-2.762.84-3.604 2.026-2.732 3.86-2.272 8.688-3.198 13.136-.812 3.892-3.506 8.057-7.494 8.057m77.957-87.089c-2.129 0-4.353-1.133-5.902-2.696-2.218-2.234-3.53-5.189-5.364-7.745-1.778-2.477-4.408-4.723-7.43-4.723-.096 0-.193.003-.29.008-3.027.144-5.579 2.523-8.598 2.774a7.36 7.36 0 0 1-.556.022c-1.456 0-2.904-.448-4.338-.896-1.436-.448-2.859-.896-4.268-.896a5.67 5.67 0 0 0-1.708.251c-3.643 1.14-5.14 5.997-8.808 7.052a5.285 5.285 0 0 1-1.464.205c-2.125 0-4.157-1.232-6.207-2.464-2.048-1.233-4.112-2.465-6.3-2.465-.318 0-.638.027-.961.081-5.093.88-6.564 8.247-11.447 9.944a6.308 6.308 0 0 1-2.086.346c-2.506 0-5.043-1.362-7.107-2.934-2.643-2.01-5.113-4.48-8.323-5.334a10.004 10.004 0 0 0-2.577-.332c-5.087 0-9.967 3.652-14.884 5.741-3.276 1.392-6.835 2.087-10.395 2.087-3.732 0-7.465-.764-10.873-2.29-6.657-2.978-11.193-9.744-13.539-16.65l168.379-.568c.234.754.321 1.698.321 2.69.001 1.575-.215 3.267-.401 4.506-.306 2.017-1.82 4.012-3.858 4.15a3.79 3.79 0 0 1-.244.007c-3.013 0-5.072-3.777-8.14-3.976a3.343 3.343 0 0 0-.257-.01c-2.823 0-4.739 3.057-5.593 5.81-.882 2.837-1.58 6.136-4.152 7.623a5.194 5.194 0 0 1-2.63.682m-73.998-63.067a3.28 3.28 0 0 1-.564-.05c-3.39-.588-4.245-6.07-7.667-6.416-.11-.01-.22-.016-.328-.016-2.436 0-4.106 2.762-6.429 3.736a4.764 4.764 0 0 1-1.856.366c-1.999 0-4.03-1.156-5.159-2.863-.94-1.419-1.338-3.113-1.338-4.828-.002-.995.132-1.996.372-2.956.29-1.159.717-2.27 1.221-3.35a6.782 6.782 0 0 1 6.15-3.934h.029c.693.003 1.386.004 2.08.004 9.134 0 18.185-.23 27.236-.46l.048-.001h4.764v-.12c7.448-.184 14.904-.339 22.42-.339 2.034 0 4.074.01 6.12.036 1.362.017 2.777.045 4.003.639 2.746 1.322 3.392 4.65 3.392 7.852 0 .71-.032 1.414-.08 2.089-.094 1.323-.374 2.913-1.61 3.396a1.722 1.722 0 0 1-.623.116c-.46 0-.917-.179-1.31-.468-.44-.325-.8-.79-.987-1.3a4.44 4.44 0 0 1-.25-1.533c0-.718.126-1.45.251-2.16a1.932 1.932 0 0 0-1.08-.316c-1.108 0-2.275.848-2.763 1.92-.454.998-.517 2.1-.517 3.212 0 .417.008.836.008 1.25v.204c-.012 1.579-.299 3.324-1.53 4.312-.607.49-1.36.706-2.135.706-.958 0-1.95-.328-2.745-.874-1.44-.988-2.384-2.528-3.282-4.024-1.266-2.113-2.58-4.293-4.578-5.734-1.18-.851-2.67-1.378-4.107-1.378-.999 0-1.973.254-2.801.83-2.18 1.52-2.986 4.897-5.58 5.472a3.368 3.368 0 0 1-.722.078c-1.305 0-2.522-.748-3.753-1.497-1.23-.748-2.473-1.496-3.83-1.496-.909 0-1.867.335-2.907 1.227-.966.828-1.622 1.95-2.095 3.13-.937 2.336-2.848 5.538-5.468 5.538" fill="#fbcbd7"/><path d="M445.626 308.709h-4.764c1.586-.042 3.176-.082 4.764-.12v.12" fill="#d1dad9"/><path d="M381.242 414.09c-8.079 0-16.116-.563-24.09-2.187-1.037-.21-1.628-1.11-1.626-2.024.001-.61.265-1.224.834-1.643a5.082 5.082 0 0 1 1.834-.85 7.377 7.377 0 0 1 1.698-.186c1.336 0 2.69.292 4.011.551 6.73 1.317 13.544 1.77 20.393 1.77 9.802 0 19.672-.929 29.464-1.582 14.326-.959 28.67-1.321 43.023-1.321 22.29 0 44.597.874 66.874 1.748.763.029 1.748.253 1.83 1.014.002.032.005.064.005.095 0 .767-1.035 1.128-1.836 1.205-3.197.312-6.404.407-9.616.407-2.512 0-5.027-.057-7.541-.116-2.516-.059-5.03-.116-7.544-.116-2.155 0-4.307.043-6.456.164-6.658.377-13.258 1.515-19.919 1.799-1.216.05-2.43.074-3.645.074-8.496 0-16.979-1.126-25.479-1.509-2.374-.108-4.75-.156-7.125-.156-9.21 0-18.428.716-27.619 1.43-9.192.717-18.357 1.433-27.47 1.433" fill="#f89db4"/><path d="M386.843 333.045a5.017 5.017 0 0 1-3.395-3.11 5.019 5.019 0 0 1 .654-4.556c1.01-1.392 2.752-2.273 3.312-3.9.282-.821.213-1.718.345-2.578.13-.86.564-1.783 1.395-2.042.724-.225 1.529.15 2.014.735.487.581.715 1.333.896 2.07.655 2.64.876 5.469.024 8.053-.85 2.582-2.584 4.769-5.245 5.328" fill="#f03d5f"/><path d="M389.286 371.036h-5.023v-35.873h5.023v35.873" fill="#33535f"/><path d="M389.227 338.245c.05.06-1.004.969-2.348 2.03-1.345 1.059-2.475 1.87-2.521 1.81-.048-.06 1.004-.968 2.349-2.03 1.345-1.058 2.473-1.87 2.52-1.81m0 6.322c.05.06-1.004.97-2.348 2.03-1.345 1.06-2.475 1.872-2.521 1.812-.048-.062 1.004-.968 2.349-2.03 1.345-1.061 2.473-1.873 2.52-1.812m0 6.322c.05.06-1.004.969-2.348 2.03-1.345 1.062-2.475 1.872-2.521 1.81-.048-.06 1.004-.967 2.349-2.028 1.345-1.06 2.473-1.871 2.52-1.812m0 6.323c.05.06-1.004.968-2.348 2.03-1.345 1.06-2.475 1.87-2.521 1.812-.048-.06 1.004-.97 2.349-2.03 1.345-1.06 2.473-1.872 2.52-1.812m0 6.323c.05.06-1.004.968-2.348 2.028-1.345 1.061-2.475 1.873-2.521 1.813-.048-.06 1.004-.969 2.349-2.03 1.345-1.062 2.473-1.872 2.52-1.81m-2.367-34.075c.078 0 .14 1.334.14 2.982 0 1.646-.062 2.98-.14 2.98-.077 0-.138-1.334-.138-2.98 0-1.648.061-2.982.138-2.982" fill="#17282f"/><path d="M510.305 332.707a5.02 5.02 0 0 1-3.394-3.11 5.016 5.016 0 0 1 .653-4.555c1.01-1.392 2.752-2.273 3.312-3.9.283-.823.215-1.719.345-2.58.131-.859.564-1.781 1.394-2.04.724-.225 1.532.15 2.017.735.485.58.712 1.333.895 2.07.653 2.639.874 5.467.024 8.052-.851 2.583-2.584 4.77-5.246 5.328" fill="#f03d5f"/><path d="M512.75 370.7h-5.026v-35.874h5.025v35.873" fill="#33535f"/><path d="M512.69 337.907c.047.06-1.005.97-2.35 2.03-1.344 1.06-2.472 1.872-2.52 1.812-.047-.06 1.004-.97 2.348-2.03 1.345-1.061 2.475-1.873 2.521-1.812m0 6.322c.048.06-1.004.97-2.349 2.03-1.344 1.062-2.472 1.872-2.52 1.812-.047-.061 1.004-.97 2.348-2.03 1.345-1.06 2.475-1.872 2.521-1.812m0 6.324c.048.058-1.004.968-2.349 2.029-1.344 1.061-2.472 1.87-2.52 1.81-.047-.058 1.004-.967 2.348-2.029 1.345-1.06 2.475-1.87 2.521-1.81m0 6.322c.048.06-1.004.968-2.349 2.03-1.344 1.06-2.472 1.871-2.52 1.811-.047-.06 1.004-.969 2.348-2.03 1.345-1.06 2.475-1.87 2.521-1.81m0 6.322c.048.06-1.004.97-2.349 2.028-1.344 1.061-2.472 1.873-2.52 1.813-.047-.061 1.004-.97 2.348-2.03 1.345-1.062 2.475-1.873 2.521-1.811m-2.366-34.075c.076 0 .138 1.335.138 2.982s-.062 2.98-.138 2.98c-.078 0-.139-1.334-.139-2.98s.061-2.982.139-2.982" fill="#17282f"/></g></svg>